<svg version="1" xmlns="http://www.w3.org/2000/svg" width="878.667" height="878.667" viewBox="0 0 659.000000 659.000000"><path d="M81 243.9c-2.5 4.7.3 10.1 5.2 10.1 2.3 0 5.8-3.9 5.8-6.5 0-4.9-8.7-7.7-11-3.6zM94.4 244.5c-2.2 3.4-1.1 6.9 2.5 8.5 5.4 2.2 9.8-2.9 7.2-8.6-1.5-3.5-7.4-3.4-9.7.1zM108.2 243.2c-2.2 2.2-1.5 7.6 1.3 9.4 3.1 2.1 5.3 1.5 7.9-1.9 1.9-2.6 1.9-3 .5-5.5-1.1-2-2.4-2.8-4.9-3-1.9-.2-4.1.3-4.8 1zM121.6 243.6c-2.4 2.3-2 7 .6 8.8 3 2.1 5.4 2 7.8-.4 4-4 1.6-10-4-10-1.6 0-3.6.7-4.4 1.6zM134.4 244.5c-2.1 3.1-1.5 5.3 1.9 7.9 2.6 1.9 3 1.9 5.5.5 3-1.6 4.2-7 2.1-9.5-2-2.4-7.6-1.8-9.5 1.1zM148.2 243.2c-1.9 1.9-1.4 7.3.7 9.2 3.8 3.4 10.1.2 10.1-5.2 0-4.2-7.7-7.1-10.8-4zM161.7 243.8c-2.3 2.5-2.1 5.8.3 8.2 2.4 2.4 4.8 2.5 7.8.4 2.9-2 3.1-7.9.3-9.4-3-1.5-6.6-1.2-8.4.8zM175.2 243.2c-2.2 2.8-2.2 5.5-.1 8.1 2.2 2.8 4.8 3.4 8 1.7 2.2-1.2 2.7-7.8.7-9.8-1.6-1.6-7.3-1.5-8.6 0zM188.5 243.6c-2.5 2.5-1.6 7.5 1.8 9.4 2.4 1.3 3 1.3 5.5 0 5.5-3.1 3.5-11-2.8-11-1.6 0-3.6.7-4.5 1.6z"/><path d="M201.6 244.2c-2.2 3.1-2 5.1.7 7.6 2.8 2.6 4.5 2.7 7.5.6 2.5-1.7 3.1-7.1 1-9.2-2.1-2.1-7.5-1.5-9.2 1zM215 243.9c-2.9 5.6 1.3 11.4 6.8 9.5 6.4-2.3 4.6-11.4-2.3-11.4-2.4 0-3.7.6-4.5 1.9zM265 243.9c-2.5 4.7.3 10.1 5.2 10.1 2.3 0 5.8-3.9 5.8-6.5 0-4.9-8.7-7.7-11-3.6zM278.4 244.5c-2.2 3.4-1.1 6.9 2.5 8.5 5.4 2.2 9.8-2.9 7.2-8.6-1.5-3.5-7.4-3.4-9.7.1zM292.2 243.2c-2.2 2.2-1.5 7.6 1.3 9.4 3.1 2.1 5.3 1.5 7.9-1.9 1.9-2.6 1.9-3 .5-5.5-1.1-2-2.4-2.8-4.9-3-1.9-.2-4.1.3-4.8 1zM305.6 243.6c-2.4 2.3-2 7 .6 8.8 3 2.1 5.4 2 7.8-.4 4-4 1.6-10-4-10-1.6 0-3.6.7-4.4 1.6zM318.4 244.5c-2.1 3.1-1.5 5.3 1.9 7.9 2.6 1.9 3 1.9 5.5.5 3-1.6 4.2-7 2.1-9.5-2-2.4-7.6-1.8-9.5 1.1zM332.2 243.2c-1.9 1.9-1.4 7.3.7 9.2 3.8 3.4 10.1.2 10.1-5.2 0-4.2-7.7-7.1-10.8-4zM345.7 243.8c-2.3 2.5-2.1 5.8.3 8.2 2.4 2.4 4.8 2.5 7.8.4 2.9-2 3.1-7.9.3-9.4-3-1.5-6.6-1.2-8.4.8zM359.2 243.2c-2.2 2.8-2.2 5.5-.1 8.1 2.2 2.8 4.8 3.4 8 1.7 2.2-1.2 2.7-7.8.7-9.8-1.6-1.6-7.3-1.5-8.6 0zM372.5 243.6c-2.5 2.5-1.6 7.5 1.8 9.4 2.4 1.3 3 1.3 5.5 0 5.5-3.1 3.5-11-2.8-11-1.6 0-3.6.7-4.5 1.6z"/><path d="M385.6 244.2c-2.2 3.1-2 5.1.7 7.6 2.8 2.6 4.5 2.7 7.5.6 2.5-1.7 3.1-7.1 1-9.2-2.1-2.1-7.5-1.5-9.2 1zM399 243.9c-1.8 3.5-1.2 6.9 1.6 8.7 5.5 3.7 11.7-2.5 8-8-2.1-3.3-7.9-3.7-9.6-.7zM449 243.9c-2.5 4.7.3 10.1 5.2 10.1 2.3 0 5.8-3.9 5.8-6.5 0-4.9-8.7-7.7-11-3.6zM462.4 244.5c-2.2 3.4-1.1 6.9 2.5 8.5 5.4 2.2 9.8-2.9 7.2-8.6-1.5-3.5-7.4-3.4-9.7.1zM476.2 243.2c-2.2 2.2-1.5 7.6 1.3 9.4 3.1 2.1 5.3 1.5 7.9-1.9 1.9-2.6 1.9-3 .5-5.5-1.1-2-2.4-2.8-4.9-3-1.9-.2-4.1.3-4.8 1zM489 243.9c-1.8 3.5-1.2 6.9 1.6 8.7 5.3 3.5 11.3-2.1 8.6-8.1-1-2.1-1.8-2.5-5.1-2.5-3 0-4.3.5-5.1 1.9zM502.5 244.3c-1.2 1.9-1.3 3-.4 5.5 2.2 6.4 10.9 4.6 10.9-2.1 0-1.8-.5-3.8-1.2-4.5-2.1-2.1-7.6-1.5-9.3 1.1zM516 243.9c-2.7 5.1.6 10.9 5.4 9.7 5.2-1.3 6.9-5.3 4-9.4-2-2.9-7.9-3.1-9.4-.3zM529.6 243.6c-3.8 3.8.1 11.2 5.2 9.9 3.8-.9 5.2-2.4 5.2-5.2 0-4.3-1.8-6.3-5.5-6.3-1.8 0-4.1.7-4.9 1.6zM543.2 243.2c-2.4 3.1-2.3 5.7.2 8.3 2.9 2.9 4.3 3.1 7.4.9 2.5-1.7 3.1-7.1 1-9.2-1.6-1.6-7.3-1.5-8.6 0zM556.6 243.6c-2.1 2.1-2 5.7.2 8.4 1.5 1.8 2.4 2.1 5 1.5 7.4-1.6 6.7-11.5-.8-11.5-1.6 0-3.6.7-4.4 1.6z"/><path d="M569.4 244.5c-3.8 5.8 4.2 12.8 9 7.9 1.9-1.8 2.1-7.5.4-9.2-2.2-2.2-7.6-1.5-9.4 1.3zM583.2 243.2c-.7.7-1.2 2.7-1.2 4.5 0 4.3 3.8 7.1 7.8 5.7 6.3-2.2 4.6-11.4-2.1-11.4-1.8 0-3.8.5-4.5 1.2zM68.8 256.1c-2.6 1.5-2.5 8.5.1 9.9 5 2.6 10.8-.9 9.6-5.8-1.1-4.7-5.6-6.5-9.7-4.1zM81.7 256.8c-3.5 3.8-1.2 10.2 3.6 10.2 3.3 0 6.7-2.8 6.7-5.3 0-5.8-6.7-8.9-10.3-4.9zM94.6 257.2c-3.2 4.6-.7 9.8 4.6 9.8 4.9 0 7.8-6.9 4.2-10.4-2.3-2.4-7-2-8.8.6zM108.8 256.1c-2.6 1.5-2.5 8.5.1 9.9 5 2.6 10.8-.9 9.6-5.8-1.1-4.7-5.6-6.5-9.7-4.1zM122.2 256.6c-4.5 3.1-1.7 10.4 4 10.4 5.3 0 7.9-7.4 3.6-10.4-1.2-.9-2.9-1.6-3.8-1.6-.9 0-2.6.7-3.8 1.6zM135.7 256.2c-2.8 2.2-3.2 6.3-.8 8.7 4.3 4.3 10.1 1.7 10.1-4.4 0-4.9-5.3-7.3-9.3-4.3zM148.7 256.8c-3.5 3.8-1.2 10.2 3.6 10.2 3.4 0 6.7-2.8 6.7-5.6 0-5.3-6.9-8.4-10.3-4.6zM161.6 257.2c-.9 1.2-1.6 2.9-1.6 3.8 0 2.9 3 6 5.9 6 5.6 0 8.3-7.3 3.9-10.4-3.2-2.2-6.4-2-8.2.6zM175.5 256.4c-1.1.8-1.8 2.6-1.8 4.6 0 3.8 2.3 6 6.3 6 3.6 0 5-1.7 5-6 0-2-.5-4.1-1.2-4.8-1.6-1.6-6-1.5-8.3.2zM188.7 256.8c-3.6 4-.9 10.2 4.5 10.2 5.3 0 7.9-7.4 3.6-10.4-3-2.1-6.1-2-8.1.2zM202 257c-5.2 5.2 1.4 12.5 8.1 9 1.4-.8 1.9-2.1 1.9-5s-.5-4.2-1.9-5c-3-1.6-5.9-1.2-8.1 1zM215.7 256.8c-3.7 4-.9 10.2 4.6 10.2 2.8 0 5.7-3.2 5.7-6.2 0-2.5-3.6-5.8-6.3-5.8-1.3 0-3.1.8-4 1.8zM252.8 256.1c-2.6 1.5-2.5 8.5.1 9.9 5 2.6 10.8-.9 9.6-5.8-1.1-4.7-5.6-6.5-9.7-4.1zM265.7 256.8c-3.5 3.8-1.2 10.2 3.6 10.2 3.3 0 6.7-2.8 6.7-5.3 0-5.8-6.7-8.9-10.3-4.9zM278.6 257.2c-3.2 4.6-.7 9.8 4.6 9.8 4.9 0 7.8-6.9 4.2-10.4-2.3-2.4-7-2-8.8.6zM292.8 256.1c-2.6 1.5-2.5 8.5.1 9.9 5 2.6 10.8-.9 9.6-5.8-1.1-4.7-5.6-6.5-9.7-4.1zM306.2 256.6c-4.5 3.1-1.7 10.4 4 10.4 5.3 0 7.9-7.4 3.6-10.4-1.2-.9-2.9-1.6-3.8-1.6-.9 0-2.6.7-3.8 1.6zM319.7 256.2c-2.8 2.2-3.2 6.3-.8 8.7 4.3 4.3 10.1 1.7 10.1-4.4 0-4.9-5.3-7.3-9.3-4.3zM332.7 256.8c-3.5 3.8-1.2 10.2 3.6 10.2 3.4 0 6.7-2.8 6.7-5.6 0-5.3-6.9-8.4-10.3-4.6zM345.6 257.2c-.9 1.2-1.6 2.9-1.6 3.8 0 2.9 3 6 5.9 6 5.6 0 8.3-7.3 3.9-10.4-3.2-2.2-6.4-2-8.2.6zM359.5 256.4c-1.1.8-1.8 2.6-1.8 4.6 0 2 .7 3.8 1.8 4.6 2.3 1.7 6.7 1.8 8.3.2 1.6-1.6 1.6-8 0-9.6-1.6-1.6-6-1.5-8.3.2zM372.7 256.8c-3.6 4-.9 10.2 4.5 10.2 5.3 0 7.9-7.4 3.6-10.4-3-2.1-6.1-2-8.1.2zM386 257c-5.2 5.2 1.4 12.5 8.1 9 1.4-.8 1.9-2.1 1.9-5s-.5-4.2-1.9-5c-3-1.6-5.9-1.2-8.1 1zM399.7 256.8c-3.7 4-.9 10.2 4.6 10.2 2.8 0 5.7-3.2 5.7-6.2 0-2.5-3.6-5.8-6.3-5.8-1.3 0-3.1.8-4 1.8zM436.8 256.1c-2.6 1.5-2.5 8.5.1 9.9 5 2.6 10.8-.9 9.6-5.8-1.1-4.7-5.6-6.5-9.7-4.1zM449.7 256.8c-3.5 3.8-1.2 10.2 3.6 10.2 3.3 0 6.7-2.8 6.7-5.3 0-5.8-6.7-8.9-10.3-4.9zM462.6 257.2c-3.2 4.6-.7 9.8 4.6 9.8 4.9 0 7.8-6.9 4.2-10.4-2.3-2.4-7-2-8.8.6zM476.8 256.1c-2.6 1.5-2.5 8.5.1 9.9 5 2.6 10.8-.9 9.6-5.8-1.1-4.7-5.6-6.5-9.7-4.1zM489.7 256.8c-3.7 4-.9 10.2 4.6 10.2 5.1 0 7.6-7.5 3.5-10.4-3-2.1-6.1-2-8.1.2zM503.2 256.3c-2.3 2.7-2.4 6.5-.3 8.6 4.1 4.1 10.1 1.8 10.1-3.9 0-1.6-.7-3.6-1.6-4.4-1.9-1.9-6.7-2.1-8.2-.3zM516.6 256.6c-3.5 3.4-.8 10.4 4 10.4 3 0 6.4-2.9 6.4-5.3 0-5.6-6.7-8.9-10.4-5.1zM529.6 257.2c-.9 1.2-1.6 2.9-1.6 3.8 0 2.9 3 6 5.9 6 5.2 0 8.2-6.8 4.5-10.4-2.3-2.4-7-2-8.8.6zM544.2 255.7c-2.1.8-3.3 5-2.2 7.8 1.1 2.9 5.2 4.2 8.6 2.6 2-.9 2.4-1.8 2.4-5 0-3-.5-4.3-1.9-5.1-2.1-1.1-4.7-1.2-6.9-.3zM556.7 256.8c-3.6 4-.9 10.2 4.5 10.2 5.3 0 7.9-7.4 3.6-10.4-3-2.1-6.1-2-8.1.2zM570 257c-2.4 2.4-2.5 4.8-.4 7.8 1.8 2.6 6.5 3 8.8.6 2.3-2.2 2.1-8.1-.3-9.4-3-1.6-5.9-1.2-8.1 1zM583.7 256.8c-3.7 4-.9 10.2 4.6 10.2 2.8 0 5.7-3.2 5.7-6.2 0-2.5-3.6-5.8-6.3-5.8-1.3 0-3.1.8-4 1.8zM68.2 270.2c-.6.6-1.2 2.7-1.2 4.5 0 2.4.7 3.7 2.6 5 2.3 1.5 2.9 1.5 5.2.2 5.6-3.2 4.4-10.2-1.8-10.7-1.9-.2-4.1.3-4.8 1zM81.1 270.4c-.7.8-1.1 3-.9 4.8.4 4.5 4.7 6.8 8.3 4.4 3-2 4.1-5.7 2.5-8.5-1.3-2.5-8-3-9.9-.7zM93.9 271.4c-1.7 3.7-.4 7.4 2.9 8.3 5.1 1.4 8.2-.8 8.2-5.7 0-3.6-1.7-5-6.2-5-3.1 0-4.1.5-4.9 2.4zM108.1 270.4c-2 2.4-.9 7.9 1.8 9.2 5 2.5 10.3-2.6 8.2-7.9-.9-2.3-1.6-2.7-5-2.7-2.1 0-4.4.6-5 1.4zM120.9 271.4c-2.6 5.5 2.3 10.8 7.6 8.4 3-1.4 4.2-5 2.6-8.4-.9-2-1.8-2.4-5.1-2.4s-4.2.4-5.1 2.4zM134.2 271.5c-.8 1.6-.8 3.3-.2 4.9 2.3 6.1 10.2 5.1 10.8-1.2.4-4.4-1.2-6.2-5.8-6.2-3 0-3.9.5-4.8 2.5zM148.2 270.2c-1.9 1.9-1.4 6.6.9 8.9 2.3 2.3 5.2 1.9 8.3-1.1 1.6-1.6 1.8-2.4 1-5.2-.9-2.9-1.4-3.3-4.9-3.6-2.3-.2-4.6.3-5.3 1zM160.9 271.4c-1.4 3.1 0 7.6 2.7 8.6 1.1.5 3.4.2 5.2-.6 2.7-1.1 3.2-1.8 3.2-4.7 0-4.3-1.5-5.7-6.2-5.7-3.1 0-4.1.5-4.9 2.4zM175.2 270.2c-2.1 2.7-2.2 5.5-.4 7.8 2 2.5 6.3 3 8.7 1 1.8-1.5 2-7.1.3-8.8-1.6-1.6-7.3-1.5-8.6 0zM188.2 270.2c-2.4 2.4-.9 8.9 2.2 10.1.9.4 2.9.1 4.6-.4 3.5-1.3 4.8-4.8 3.1-8.5-.8-1.9-1.8-2.4-4.9-2.4-2.1 0-4.3.5-5 1.2zM201 271.1c-1.6 2.8-.5 6.5 2.5 8.5 3.6 2.4 7.9.1 8.3-4.4.4-4.4-1.2-6.2-5.9-6.2-2.9 0-4.1.5-4.9 2.1zM215.2 270.2c-1.7 1.7-1.5 7.3.4 8.8 1.8 1.5 7 1.8 8.4.4 2-2 2.2-7 .5-8.7-1.9-2-7.6-2.2-9.3-.5zM252.2 270.2c-.6.6-1.2 2.7-1.2 4.5 0 2.4.7 3.7 2.6 5 2.3 1.5 2.9 1.5 5.2.2 5.6-3.2 4.4-10.2-1.8-10.7-1.9-.2-4.1.3-4.8 1zM265.1 270.4c-.7.8-1.1 3-.9 4.8.4 4.5 4.7 6.8 8.3 4.4 3-2 4.1-5.7 2.5-8.5-1.3-2.5-8-3-9.9-.7zM277.9 271.4c-1.7 3.7-.4 7.4 2.9 8.3 5.1 1.4 8.2-.8 8.2-5.7 0-3.6-1.7-5-6.2-5-3.1 0-4.1.5-4.9 2.4zM292.1 270.4c-2 2.4-.9 7.9 1.8 9.2 5 2.5 10.3-2.6 8.2-7.9-.9-2.3-1.6-2.7-5-2.7-2.1 0-4.4.6-5 1.4zM304.9 271.4c-1.6 3.4-.4 7 2.6 8.4 5.3 2.4 10.2-2.9 7.6-8.4-.9-2-1.8-2.4-5.1-2.4s-4.2.4-5.1 2.4zM318.2 271.5c-.8 1.6-.8 3.3-.2 4.9 2.3 6.1 10.2 5.1 10.8-1.2.4-4.4-1.2-6.2-5.8-6.2-3 0-3.9.5-4.8 2.5zM332.2 270.2c-1.9 1.9-1.4 6.6.9 8.9 2.3 2.3 5.2 1.9 8.3-1.1 1.6-1.6 1.8-2.4 1-5.2-.9-2.9-1.4-3.3-4.9-3.6-2.3-.2-4.6.3-5.3 1zM344.9 271.4c-1.4 3.1 0 7.6 2.7 8.6 1.1.5 3.4.2 5.2-.6 2.7-1.1 3.2-1.8 3.2-4.7 0-4.3-1.5-5.7-6.2-5.7-3.1 0-4.1.5-4.9 2.4zM359.2 270.2c-2.1 2.7-2.2 5.5-.4 7.8 2 2.5 6.3 3 8.7 1 1.8-1.5 2-7.1.3-8.8-1.6-1.6-7.3-1.5-8.6 0zM372.2 270.2c-2.4 2.4-.9 8.9 2.2 10.1.9.4 2.9.1 4.6-.4 3.5-1.3 4.8-4.8 3.1-8.5-.8-1.9-1.8-2.4-4.9-2.4-2.1 0-4.3.5-5 1.2zM385 271.1c-1.6 2.8-.5 6.5 2.5 8.5 3.6 2.4 7.9.1 8.3-4.4.4-4.4-1.2-6.2-5.9-6.2-2.9 0-4.1.5-4.9 2.1zM399.2 270.2c-1.7 1.7-1.5 7.3.4 8.8 1.8 1.5 7 1.8 8.4.4 2-2 2.2-7 .5-8.7-1.9-2-7.6-2.2-9.3-.5zM436.2 270.2c-.6.6-1.2 2.7-1.2 4.5 0 2.4.7 3.7 2.6 5 2.3 1.5 2.9 1.5 5.2.2 5.6-3.2 4.4-10.2-1.8-10.7-1.9-.2-4.1.3-4.8 1zM449.1 270.4c-.7.8-1.1 3-.9 4.8.4 4.5 4.7 6.8 8.3 4.4 3-2 4.1-5.7 2.5-8.5-1.3-2.5-8-3-9.9-.7zM461.9 271.4c-1.7 3.7-.4 7.4 2.9 8.3 5.1 1.4 8.2-.8 8.2-5.7 0-3.6-1.7-5-6.2-5-3.1 0-4.1.5-4.9 2.4zM476.1 270.4c-2 2.4-.9 7.9 1.8 9.2 5 2.5 10.3-2.6 8.2-7.9-.9-2.3-1.6-2.7-5-2.7-2.1 0-4.4.6-5 1.4zM489.2 270.2c-1.3 1.3-1.6 5.7-.4 7.4 1.5 2.3 5 3.4 7.5 2.5 2.6-1 3.7-2.9 3.7-6.5 0-3.2-1.9-4.6-6-4.6-2 0-4.1.5-4.8 1.2zM502.4 271.5c-1.9 2.9-1.1 6 2.1 8.1 3.6 2.4 7.9.1 8.3-4.4.4-4.3-1.2-6.2-5.4-6.2-2.5 0-3.8.7-5 2.5zM516.2 270.2c-3.4 3.4.7 11.6 5.1 10.2 5.3-1.6 7.4-6.6 4.1-9.8-1.8-1.9-7.5-2.1-9.2-.4zM528.9 271.4c-1.4 3.1 0 7.6 2.7 8.6 1.1.5 3.4.2 5.2-.6 2.7-1.1 3.2-1.8 3.2-4.7 0-4.3-1.5-5.7-6.2-5.7-3.1 0-4.1.5-4.9 2.4zM542.5 271.4c-1.2 1.7-1.3 3-.6 4.9 2.4 6.2 10.3 5.3 10.9-1.1.4-4.3-1.2-6.2-5.4-6.2-2.4 0-3.8.7-4.9 2.4zM555.9 271.4c-1.6 3.4-.4 7 2.6 8.4 5.4 2.5 10.2-2.8 7.6-8.4-.9-2-1.8-2.4-5.1-2.4s-4.2.4-5.1 2.4zM569 271.9c-.9 2.2-.9 3.5-.1 5 3 5.6 10.3 4.4 10.9-1.7.4-4.4-1.2-6.2-5.8-6.2-3.2 0-3.9.4-5 2.9zM583.2 270.2c-2.1 2.1-1.5 7.6 1.2 9.3 5.6 3.7 12.7-4.2 8-8.9-1.8-1.9-7.5-2.1-9.2-.4zM68.2 283.2c-.6.6-1.2 2.9-1.2 5 0 2.8.5 4 2.1 4.8 2.8 1.6 6.5.5 8.5-2.5 1.3-2.1 1.4-2.8.2-5.2-1-2.2-2.1-2.9-4.8-3.1-1.9-.2-4.1.3-4.8 1zM81 283.9c-1.8 3.5-1.2 6.9 1.6 8.7 5.5 3.7 11.7-2.5 8-8-2.1-3.3-7.9-3.7-9.6-.7zM94.6 284.2c-2.1 3-2 5.4.4 7.8 3.9 3.9 10 1.4 10-4.3 0-5.5-7.3-7.9-10.4-3.5zM108.2 283.2c-2.2 2.2-1.5 7.6 1.3 9.4 3.1 2.1 5.3 1.5 7.9-1.9 1.9-2.6 1.9-3 .5-5.5-1.1-2-2.4-2.8-4.9-3-1.9-.2-4.1.3-4.8 1zM252.2 283.2c-.6.6-1.2 2.9-1.2 5 0 2.8.5 4 2.1 4.8 2.8 1.6 6.5.5 8.5-2.5 1.3-2.1 1.4-2.8.2-5.2-1-2.2-2.1-2.9-4.8-3.1-1.9-.2-4.1.3-4.8 1zM265 283.9c-1.8 3.5-1.2 6.9 1.6 8.7 5.5 3.7 11.7-2.5 8-8-2.1-3.3-7.9-3.7-9.6-.7zM278.6 284.2c-2.1 3-2 5.4.4 7.8 3.9 3.9 10 1.4 10-4.3 0-5.5-7.3-7.9-10.4-3.5zM292.2 283.2c-2.2 2.2-1.5 7.6 1.3 9.4 3.1 2.1 5.3 1.5 7.9-1.9 1.9-2.6 1.9-3 .5-5.5-1.1-2-2.4-2.8-4.9-3-1.9-.2-4.1.3-4.8 1zM436.2 283.2c-2 2-1.5 8.6.7 9.8 3.2 1.7 5.8 1.2 8-1.6 1.8-2.3 1.9-2.9.7-5.7-1-2.6-1.9-3.3-4.7-3.5-1.9-.2-4 .3-4.7 1zM449.8 283.1c-1.2.6-1.8 2.2-1.8 4.4 0 6.9 9.1 8.7 11.4 2.3 1.9-5.5-4.3-9.9-9.6-6.7zM462.7 283.8c-2.3 2.5-2.1 5.8.3 8.2 4.1 4.1 10 1.3 10-4.6 0-1.7-.5-3.5-1.2-4.2-1.8-1.8-7.3-1.4-9.1.6zM68.8 296.1c-2.1 1.2-2.5 7.8-.6 9.7 1.9 1.9 6.6 1.4 8.9-.9 5-5-2.1-12.5-8.3-8.8z"/><path d="M81.7 296.8c-3.7 4.1-1.1 10.2 4.2 10.2 5.5 0 8-6.1 4.1-10-2.5-2.5-6.2-2.6-8.3-.2zM94.6 297.2c-2.1 3-2 6.1.2 8.1 4 3.6 10.2.9 10.2-4.5 0-5.3-7.4-7.9-10.4-3.6zM108.6 296.6c-2.3 2.2-2.1 8.1.3 9.4 5.4 2.8 10.9-.9 9.5-6.4-1.1-4.4-6.7-6.1-9.8-3zM122.2 296.6c-4.5 3.1-1.7 10.4 4 10.4 5.3 0 7.9-7.4 3.6-10.4-1.2-.9-2.9-1.6-3.8-1.6-.9 0-2.6.7-3.8 1.6zM135.7 296.2c-2.8 2.2-3.2 6.3-.8 8.7 2.7 2.7 7.7 2.8 9.1.2 3.3-6.3-2.9-12.9-8.3-8.9zM148.7 296.8c-3.7 4-1.4 10.2 3.7 10.2 5.9 0 8.7-5.9 4.6-10-2.5-2.5-6.2-2.6-8.3-.2zM162 297c-2.4 2.4-2.5 4.8-.4 7.8 1.8 2.6 6.5 3 8.8.6 2.4-2.3 2-7-.6-8.8-3-2.1-5.4-2-7.8.4zM176.4 295.8c-3.7 2.4-3.6 9.1.1 10.6 2.6 1 6 .7 7.3-.6 2-2 1.5-8.6-.7-9.8-2.3-1.2-5.1-1.3-6.7-.2zM188.6 297.2c-3.2 4.6-.7 9.8 4.7 9.8 3.4 0 5.7-2.4 5.7-6 0-5.4-7.4-8.1-10.4-3.8zM202 297c-3.9 3.9-1.2 10 4.4 10 4.1 0 5.6-1.5 5.6-5.6 0-5.6-6.1-8.3-10-4.4zM252.8 296.1c-2.1 1.2-2.5 7.8-.6 9.7 1.9 1.9 6.6 1.4 8.9-.9 5-5-2.1-12.5-8.3-8.8z"/><path d="M265.7 296.8c-3.7 4.1-1.1 10.2 4.2 10.2 5.5 0 8-6.1 4.1-10-2.5-2.5-6.2-2.6-8.3-.2zM278.6 297.2c-2.1 3-2 6.1.2 8.1 4 3.6 10.2.9 10.2-4.5 0-5.3-7.4-7.9-10.4-3.6zM292.6 296.6c-2.3 2.2-2.1 8.1.3 9.4 5.4 2.8 10.9-.9 9.5-6.4-1.1-4.4-6.7-6.1-9.8-3zM306.2 296.6c-4.5 3.1-1.7 10.4 4 10.4 5.3 0 7.9-7.4 3.6-10.4-1.2-.9-2.9-1.6-3.8-1.6-.9 0-2.6.7-3.8 1.6zM319.7 296.2c-2.8 2.2-3.2 6.3-.8 8.7 2.7 2.7 7.7 2.8 9.1.2 3.3-6.3-2.9-12.9-8.3-8.9zM332.7 296.8c-3.7 4-1.4 10.2 3.7 10.2 5.9 0 8.7-5.9 4.6-10-2.5-2.5-6.2-2.6-8.3-.2zM346 297c-2.4 2.4-2.5 4.8-.4 7.8 1.8 2.6 6.5 3 8.8.6 2.4-2.3 2-7-.6-8.8-3-2.1-5.4-2-7.8.4zM360.4 295.8c-3.7 2.4-3.6 9.1.1 10.6 2.6 1 6 .7 7.3-.6 2-2 1.5-8.6-.7-9.8-2.3-1.2-5.1-1.3-6.7-.2zM372.6 297.2c-3.2 4.6-.7 9.8 4.7 9.8 3.4 0 5.7-2.4 5.7-6 0-5.4-7.4-8.1-10.4-3.8zM386 297c-3.9 3.9-1.2 10 4.4 10 4.1 0 5.6-1.5 5.6-5.6 0-5.6-6.1-8.3-10-4.4zM437.3 296c-1.8.7-2.3 1.7-2.3 4.8 0 2.1.5 4.3 1.2 5 3.4 3.4 11.6-.7 10.2-5.1-1.5-5.1-4.5-6.6-9.1-4.7zM450.2 296.6c-2.9 2-3.1 7.9-.3 9.4 6.9 3.6 13.5-3.6 8.1-9-2.4-2.4-4.8-2.5-7.8-.4z"/><path d="M463 297c-5.4 5.4 1.2 12.6 8.1 9 1.3-.7 1.9-2.1 1.9-4.4 0-5.9-5.9-8.7-10-4.6zM68.2 310.2c-2.2 2.2-1.5 7.6 1.3 9.4 2.9 1.9 6 1.1 8.1-2.1 1.3-2.1 1.4-2.8.2-5.2-1-2.2-2.1-2.9-4.8-3.1-1.9-.2-4.1.3-4.8 1zM81.2 310.2c-1.6 1.6-1.5 7.3.1 8.6.6.6 2.4 1.3 3.8 1.7 2.1.5 3.1.1 4.8-2.1 2.6-3.3 2.7-5.6.3-7.7-2.2-2-7.3-2.2-9-.5zM94 310.9c-2.3 4.3-.5 8.5 4.2 9.6 4.9 1.2 9.2-6.7 5.6-10.3-2-2-8.6-1.5-9.8.7zM108.2 310.2c-1.6 1.6-1.6 7.3.1 8.6 2.9 2.3 5.5 2.3 8.3-.1 2.5-2.2 2.7-2.7 1.8-5.8-.9-3.1-1.4-3.4-4.9-3.7-2.3-.2-4.6.3-5.3 1zM121.2 310.2c-1.3 1.3-1.6 5.7-.4 7.4 1.5 2.3 5 3.4 7.5 2.5 3.8-1.5 5-6.7 2.1-9.5-1.8-1.9-7.5-2.1-9.2-.4z"/><path d="M134.4 311.5c-2.1 3.1-1.5 5.3 1.9 7.9 2.6 1.9 3 1.9 5.5.5 3-1.6 4.2-7 2.1-9.5-2-2.4-7.6-1.8-9.5 1.1zM148.2 310.2c-1.9 1.9-1.4 6.6.8 8.8 2.3 2.3 3.3 2.4 6.3.9 4.1-2.2 5-6.4 1.9-9.2-2.2-2-7.3-2.2-9-.5zM161 311.1c-1.6 2.9-.2 7.8 2.5 9.1 3.7 1.7 7.9-.9 8.3-5 .4-4.4-1.2-6.2-5.9-6.2-2.8 0-4.1.5-4.9 2.1zM175.2 310.2c-2.4 3-1.8 7.4 1.3 9.4 2.1 1.4 3 1.4 5.5.4 2.6-1.1 3-1.8 3-4.9 0-2-.5-4.2-1.2-4.9-1.6-1.6-7.3-1.5-8.6 0zM187.9 311.4c-2.5 5.4 2 10.7 7.4 8.7 3.1-1.2 4.4-5.2 2.8-8.7-.9-2-1.8-2.4-5.1-2.4s-4.2.4-5.1 2.4zM201.4 311.5c-3.4 5.2 2.9 11.5 8.1 8.1 2.8-1.8 3.5-7.2 1.3-9.4s-7.6-1.5-9.4 1.3zM215 311c-1.8 3.3-.8 7.3 2.2 8.9 2.5 1.4 2.9 1.4 5.5-.5 3.4-2.5 4.1-5.9 1.7-8.5-2.4-2.6-8-2.6-9.4.1zM252.2 310.2c-2.2 2.2-1.5 7.6 1.3 9.4 2.9 1.9 6 1.1 8.1-2.1 1.3-2.1 1.4-2.8.2-5.2-1-2.2-2.1-2.9-4.8-3.1-1.9-.2-4.1.3-4.8 1zM265.2 310.2c-1.6 1.6-1.5 7.3.1 8.6.6.6 2.4 1.3 3.8 1.7 2.1.5 3.1.1 4.8-2.1 2.6-3.3 2.7-5.6.3-7.7-2.2-2-7.3-2.2-9-.5zM278 310.9c-2.3 4.3-.5 8.5 4.2 9.6 4.9 1.2 9.2-6.7 5.6-10.3-2-2-8.6-1.5-9.8.7zM292.2 310.2c-1.6 1.6-1.6 7.3.1 8.6 2.9 2.3 5.5 2.3 8.3-.1 2.5-2.2 2.7-2.7 1.8-5.8-.9-3.1-1.4-3.4-4.9-3.7-2.3-.2-4.6.3-5.3 1zM305.2 310.2c-1.3 1.3-1.6 5.7-.4 7.4 1.5 2.3 5 3.4 7.5 2.5 3.8-1.5 5-6.7 2.1-9.5-1.8-1.9-7.5-2.1-9.2-.4z"/><path d="M318.4 311.5c-2.1 3.1-1.5 5.3 1.9 7.9 2.6 1.9 3 1.9 5.5.5 3-1.6 4.2-7 2.1-9.5-2-2.4-7.6-1.8-9.5 1.1zM332.2 310.2c-1.9 1.9-1.4 6.6.8 8.8 2.3 2.3 3.3 2.4 6.3.9 4.1-2.2 5-6.4 1.9-9.2-2.2-2-7.3-2.2-9-.5zM345 311.1c-1.6 2.9-.2 7.8 2.5 9.1 3.7 1.7 7.9-.9 8.3-5 .4-4.4-1.2-6.2-5.9-6.2-2.8 0-4.1.5-4.9 2.1zM359.2 310.2c-2.4 3-1.8 7.4 1.3 9.4 2.1 1.4 3 1.4 5.5.4 2.6-1.1 3-1.8 3-4.9 0-2-.5-4.2-1.2-4.9-1.6-1.6-7.3-1.5-8.6 0zM371.9 311.4c-2.5 5.4 2 10.7 7.4 8.7 3.1-1.2 4.4-5.2 2.8-8.7-.9-2-1.8-2.4-5.1-2.4s-4.2.4-5.1 2.4zM385.4 311.5c-3.4 5.2 2.9 11.5 8.1 8.1 2.8-1.8 3.5-7.2 1.3-9.4s-7.6-1.5-9.4 1.3zM399 311c-1.8 3.3-.8 7.3 2.2 8.9 2.5 1.4 2.9 1.4 5.5-.5 3.4-2.5 4.1-5.9 1.7-8.5-2.4-2.6-8-2.6-9.4.1zM436.2 310.2c-.6.6-1.2 2.8-1.2 4.8 0 2.9.5 3.9 2.5 4.8 1.6.8 3.3.8 4.9.2 6.2-2.3 5.1-10.2-1.4-10.8-1.9-.2-4.1.3-4.8 1z"/><path d="M449.2 310.2c-2.2 2.2-1.5 7.6 1.3 9.4 5.9 3.8 12.9-4.2 7.7-8.9-2.2-2-7.3-2.2-9-.5zM462.4 311.5c-2.2 3.3-1.1 7.3 2.3 8.6 5.5 2.1 10-3.1 7.4-8.7-1.5-3.5-7.4-3.4-9.7.1zM81.6 323.5c-2.5 2.5-2 7.2.8 9.1 3.4 2.1 6.7 1.4 8.6-1.9 1.3-2.4 1.3-3 0-5.5-1.9-3.3-6.9-4.2-9.4-1.7zM94.6 324.2c-2.1 3-2 5.4.4 7.8 3.9 3.9 10 1.4 10-4.2 0-5.3-7.4-7.9-10.4-3.6zM108.2 323.2c-1.8 1.8-1.4 7.3.6 9.1 2.6 2.3 5.5 2.1 8-.6 2.6-2.8 2.7-4.5.6-7.5-1.7-2.5-7.1-3.1-9.2-1zM121.6 323.6c-3.8 3.7-.5 10.4 5.1 10.4 2.5 0 5.3-3.4 5.3-6.6 0-4.6-7.1-7.2-10.4-3.8zM134.5 324.4c-1.4 2.2-1.5 2.8-.1 6 1.2 3 2 3.6 4.4 3.6 5.1 0 7.8-5.2 5.2-10.1-1.6-2.9-7.5-2.6-9.5.5zM148 323.9c-3.6 6.9 3.6 13.5 9 8.1 2.4-2.4 2.5-4.8.4-7.8-2-2.9-7.9-3.1-9.4-.3zM161.6 324.2c-.9 1.2-1.6 2.9-1.6 3.8 0 2.6 3 6 5.3 6 5.6 0 8.9-6.7 5.1-10.4-2.3-2.4-7-2-8.8.6zM175.2 323.2c-2.2 2.8-2.2 5.5-.1 8.1 2.2 2.8 4.8 3.4 8 1.7 1.4-.8 1.9-2.1 1.9-5s-.5-4.2-1.9-5c-2.7-1.4-6.6-1.3-7.9.2zM188.7 323.8c-2.1 2.3-2.2 5.1-.1 8 2.9 4.2 10.4 1.6 10.4-3.7 0-5.4-6.8-8.2-10.3-4.3zM201.4 324.5c-2.6 3.9-.1 9.5 4.3 9.5 4.5 0 6.3-1.7 6.3-6 0-2.9-.5-4.2-1.9-5-3.4-1.8-6.9-1.2-8.7 1.5zM215.6 323.5c-.9.9-1.6 2.9-1.6 4.4 0 6.2 8 8.2 11 2.8 1.3-2.4 1.3-3 0-5.5-1.9-3.3-6.9-4.2-9.4-1.7zM265.6 323.5c-2.5 2.5-2 7.2.8 9.1 3.4 2.1 6.7 1.4 8.6-1.9 1.3-2.4 1.3-3 0-5.5-1.9-3.3-6.9-4.2-9.4-1.7zM278.6 324.2c-2.1 3-2 5.4.4 7.8 3.9 3.9 10 1.4 10-4.2 0-5.3-7.4-7.9-10.4-3.6zM292.2 323.2c-1.8 1.8-1.4 7.3.6 9.1 2.6 2.3 5.5 2.1 8-.6 2.6-2.8 2.7-4.5.6-7.5-1.7-2.5-7.1-3.1-9.2-1zM305.6 323.6c-3.8 3.7-.5 10.4 5.1 10.4 2.5 0 5.3-3.4 5.3-6.6 0-4.6-7.1-7.2-10.4-3.8zM318.5 324.4c-1.4 2.2-1.5 2.8-.1 6 1.2 3 2 3.6 4.4 3.6 5.1 0 7.8-5.2 5.2-10.1-1.6-2.9-7.5-2.6-9.5.5zM332 323.9c-3.6 6.9 3.6 13.5 9 8.1 2.4-2.4 2.5-4.8.4-7.8-2-2.9-7.9-3.1-9.4-.3zM345.6 324.2c-.9 1.2-1.6 2.9-1.6 3.8 0 2.6 3 6 5.3 6 5.6 0 8.9-6.7 5.1-10.4-2.3-2.4-7-2-8.8.6zM359.2 323.2c-2.2 2.8-2.2 5.5-.1 8.1 2.2 2.8 4.8 3.4 8 1.7 1.4-.8 1.9-2.1 1.9-5s-.5-4.2-1.9-5c-2.7-1.4-6.6-1.3-7.9.2zM372.7 323.8c-2.1 2.3-2.2 5.1-.1 8 2.9 4.2 10.4 1.6 10.4-3.7 0-5.4-6.8-8.2-10.3-4.3zM385.4 324.5c-2.6 3.9-.1 9.5 4.3 9.5 4.5 0 6.3-1.7 6.3-6 0-2.9-.5-4.2-1.9-5-3.4-1.8-6.9-1.2-8.7 1.5zM399.6 323.5c-.9.9-1.6 2.9-1.6 4.4 0 6.2 8 8.2 11 2.8 1.3-2.4 1.3-3 0-5.5-1.9-3.3-6.9-4.2-9.4-1.7zM436.8 323.1c-1.3.7-1.8 2.2-1.8 5 0 3.2.5 4.1 2.4 5 3.4 1.6 7 .4 8.4-2.6 2.6-5.7-3.5-10.6-9-7.4zM449.6 323.6c-2.3 2.2-2.1 8.1.3 9.4 4.7 2.5 10.1-.3 10.1-5.2 0-4.6-7.2-7.5-10.4-4.2zM462.6 324.2c-.9 1.2-1.6 2.9-1.6 3.8 0 .9.7 2.6 1.6 3.8 3.1 4.5 10.4 1.7 10.4-4 0-5.3-7.4-7.9-10.4-3.6zM176.3 335.8c-1.9 1.2-3.1 5.5-2.2 7.9 1 2.7 5.2 3.9 8.5 2.4 2-.9 2.4-1.8 2.4-5.1 0-3.4-.4-4.2-2.6-5-3-1.2-4.5-1.2-6.1-.2zM189.2 336.6c-4.5 3.1-1.7 10.4 4 10.4 5.3 0 7.9-7.4 3.6-10.4-1.2-.9-2.9-1.6-3.8-1.6-.9 0-2.6.7-3.8 1.6z"/><path d="M202 337c-5.3 5.3 1.3 12.6 8.1 9 2.8-1.5 2.6-7.4-.3-9.4-3-2.1-5.4-2-7.8.4zM216.3 336.5c-3 2.1-3.2 8-.4 9.5 6.3 3.3 12.9-2.9 8.9-8.3-1.9-2.4-6-3-8.5-1.2zM360.3 335.8c-1.9 1.2-3.1 5.5-2.2 7.9 1 2.7 5.2 3.9 8.5 2.4 2-.9 2.4-1.8 2.4-5.1 0-3.4-.4-4.2-2.6-5-3-1.2-4.5-1.2-6.1-.2zM373.2 336.6c-4.5 3.1-1.7 10.4 4 10.4 5.3 0 7.9-7.4 3.6-10.4-1.2-.9-2.9-1.6-3.8-1.6-.9 0-2.6.7-3.8 1.6z"/><path d="M386 337c-5.3 5.3 1.3 12.6 8.1 9 2.8-1.5 2.6-7.4-.3-9.4-3-2.1-5.4-2-7.8.4zM400.3 336.5c-3 2.1-3.2 8-.4 9.5 6.3 3.3 12.9-2.9 8.9-8.3-1.9-2.4-6-3-8.5-1.2zM437.3 336.2c-1.8.9-2.3 2-2.3 4.8 0 2 .5 4.1 1.2 4.8 1.7 1.7 7.3 1.5 8.8-.3 2-2.4 1.5-6.7-1-8.7-2.5-2-3.5-2.1-6.7-.6zM450.2 336.6c-1.5 1-2.2 2.5-2.2 4.8 0 4.1 1.5 5.6 5.7 5.6 5.7 0 7.9-6.2 3.7-10.5-2-1.9-4.4-1.9-7.2.1zM465 335.7c-3.9 1.4-5.3 6.9-2.4 9.7 2.2 2.3 8.1 2.1 9.4-.3 1.6-3 1.2-5.9-1-8.1-2-2-3.3-2.3-6-1.3zM68.2 350.2c-1.8 1.8-1.4 7.3.6 9.1 2.6 2.3 4.9 2.1 7.7-.7 2.4-2.4 2.5-5.5.2-8.4-1.2-1.5-6.9-1.6-8.5 0zM81 350.9c-1.8 3.4-1.2 6.9 1.5 8.7 3.4 2.2 6.9 1.2 8.5-2.6 1-2.5 1-3.4-.4-5.5-2.1-3.2-8-3.5-9.6-.6zM94.6 350.6c-3.4 3.3-.4 10.4 4.4 10.4 4.6 0 8-7.6 4.8-10.8-1.7-1.7-7.4-1.5-9.2.4zM108.1 350.4c-2.1 2.5-.9 7.9 2.1 9.5 2.5 1.4 2.9 1.4 5.5-.5 3.4-2.6 4-4.8 1.9-7.9-1.9-2.9-7.5-3.5-9.5-1.1zM121.6 350.6c-2.4 2.3-2 7 .6 8.8 3 2.1 5.4 2 7.8-.4 4-4 1.6-10-4-10-1.6 0-3.6.7-4.4 1.6zM134.4 351.5c-2.1 3.1-1.5 5.3 1.9 7.9 2.6 1.9 3 1.9 5.5.5 3-1.6 4.2-7 2.1-9.5-2-2.4-7.6-1.8-9.5 1.1zM148.2 350.2c-.7.7-1.2 2.6-1.2 4.3 0 4.1 3 7 6.4 6.1 5.3-1.3 7.4-6.7 3.8-9.9-2.2-2-7.3-2.2-9-.5z"/><path d="M161.6 350.6c-3.8 3.8.1 11.2 5.2 9.9 4-1 5.2-2.4 5.2-6.1 0-2.3-.6-3.7-1.9-4.4-2.9-1.5-6.7-1.2-8.5.6zM175 350.5c-.7.8-1.2 2.6-1.2 4 0 4.7 4 7.3 8.6 5.6 2.2-.9 2.6-1.7 2.6-4.9 0-2.1-.5-4.3-1.2-5-1.7-1.7-7.3-1.5-8.8.3zM188 351c-1.8 3.4-.8 7.3 2.3 9 2.4 1.3 3 1.3 5.5 0 3.3-1.9 4.2-6.9 1.7-9.4-2.4-2.4-8.2-2.1-9.5.4zM201.6 351.2c-2.2 3.1-2 5.1.7 7.6 2.8 2.6 4.5 2.7 7.5.6 2.5-1.7 3.1-7.1 1-9.2-2.1-2.1-7.5-1.5-9.2 1zM215 350.9c-2.9 5.6 1.1 11.2 6.7 9.4 6.5-2.2 4.7-11.3-2.2-11.3-2.4 0-3.7.6-4.5 1.9zM252.2 350.2c-1.8 1.8-1.4 7.3.6 9.1 2.6 2.3 4.9 2.1 7.7-.7 2.4-2.4 2.5-5.5.2-8.4-1.2-1.5-6.9-1.6-8.5 0zM265 350.9c-1.8 3.4-1.2 6.9 1.5 8.7 3.4 2.2 6.9 1.2 8.5-2.6 1-2.5 1-3.4-.4-5.5-2.1-3.2-8-3.5-9.6-.6zM278.6 350.6c-3.4 3.3-.4 10.4 4.4 10.4 4.6 0 8-7.6 4.8-10.8-1.7-1.7-7.4-1.5-9.2.4zM292.1 350.4c-2.1 2.5-.9 7.9 2.1 9.5 2.5 1.4 2.9 1.4 5.5-.5 3.4-2.6 4-4.8 1.9-7.9-1.9-2.9-7.5-3.5-9.5-1.1zM305.6 350.6c-2.4 2.3-2 7 .6 8.8 3 2.1 5.4 2 7.8-.4 4-4 1.6-10-4-10-1.6 0-3.6.7-4.4 1.6zM318.4 351.5c-2.1 3.1-1.5 5.3 1.9 7.9 2.6 1.9 3 1.9 5.5.5 3-1.6 4.2-7 2.1-9.5-2-2.4-7.6-1.8-9.5 1.1zM332.2 350.2c-.7.7-1.2 2.6-1.2 4.3 0 4.1 3 7 6.4 6.1 5.3-1.3 7.4-6.7 3.8-9.9-2.2-2-7.3-2.2-9-.5z"/><path d="M345.6 350.6c-3.8 3.8.1 11.2 5.2 9.9 4-1 5.2-2.4 5.2-6.1 0-2.3-.6-3.7-1.9-4.4-2.9-1.5-6.7-1.2-8.5.6zM359 350.5c-.7.8-1.2 2.6-1.2 4 0 4.7 4 7.3 8.6 5.6 2.2-.9 2.6-1.7 2.6-4.9 0-2.1-.5-4.3-1.2-5-1.7-1.7-7.3-1.5-8.8.3zM372 351c-1.8 3.4-.8 7.3 2.3 9 2.4 1.3 3 1.3 5.5 0 3.3-1.9 4.2-6.9 1.7-9.4-2.4-2.4-8.2-2.1-9.5.4zM385.6 351.2c-2.2 3.1-2 5.1.7 7.6 2.8 2.6 4.5 2.7 7.5.6 2.5-1.7 3.1-7.1 1-9.2-2.1-2.1-7.5-1.5-9.2 1zM399 350.9c-2.9 5.6 1.1 11.2 6.7 9.4 6.5-2.2 4.7-11.3-2.2-11.3-2.4 0-3.7.6-4.5 1.9zM436.2 350.2c-.7.7-1.2 2.9-1.2 5 0 3.9 1.9 5.8 5.8 5.8 4.6 0 7.3-8 3.6-10.7-2.2-1.6-6.6-1.7-8.2-.1zM449.2 350.2c-.7.7-1.2 2.7-1.2 4.5 0 4.3 3.8 7.1 7.8 5.7 6.3-2.2 4.6-11.4-2.1-11.4-1.8 0-3.8.5-4.5 1.2z"/><path d="M462.7 350.8c-3.7 4-.7 10.2 4.9 10.2 2.7 0 5.4-3 5.4-6.2 0-5.1-6.9-7.8-10.3-4zM476.2 350.2c-1.7 1.7-1.5 7.4.4 9.2 5 5 12.8-2 8.9-8-1.7-2.7-7.1-3.4-9.3-1.2zM489.7 350.8c-2.6 2.8-2.1 6.9.9 8.8 5.5 3.7 11.7-2.5 8-8-2-3.1-6.5-3.5-8.9-.8zM503 351c-1.1 1.1-2 2.9-2 4s.9 2.9 2 4c5.4 5.4 12.6-1.2 9-8.1-1.4-2.5-6.4-2.5-9 .1zM516.6 350.6c-3.6 3.6-.6 10.4 4.6 10.4 2.5 0 5.8-3.6 5.8-6.3 0-4.9-7-7.6-10.4-4.1zM529.4 351.4c-2.1 3.4-1.4 6.7 1.9 8.6 2.4 1.3 3 1.3 5.5 0 5.4-3 3.3-11-2.9-11-1.9 0-3.4.8-4.5 2.4zM542.9 351.1c-1.5 1.5-1.9 2.8-1.4 4.7 1.1 4.7 5.3 6.5 9.6 4.2 2.2-1.2 2.7-7.8.7-9.8-1.9-1.9-6.6-1.4-8.9.9zM556.7 350.8c-3.7 4-.9 10.2 4.6 10.2 2.9 0 5.7-3.2 5.7-6.6 0-4.7-7.1-7.2-10.3-3.6zM569.5 351.4c-2.9 4.3 0 9.6 5.3 9.6 4.7 0 7.3-8.8 3.3-11-3.4-1.7-6.9-1.2-8.6 1.4zM583.6 350.6c-3.4 3.3-.8 10.4 3.8 10.4 5.2 0 8.4-6.4 5-10.1-2.1-2.3-6.7-2.5-8.8-.3zM68.2 363.2c-.6.6-1.2 2.9-1.2 5 0 3.1.5 4.1 2.4 4.9 5.8 2.7 11.1-2.2 8.5-7.7-1.1-2.3-2.2-3-4.9-3.2-1.9-.2-4.1.3-4.8 1zM81.6 363.5c-.9.9-1.6 2.9-1.6 4.4 0 6.2 8 8.2 11 2.8 1.3-2.4 1.3-3 0-5.5-1.9-3.3-6.9-4.2-9.4-1.7zM94.6 364.2c-2.1 3-2 5.4.4 7.8 3.9 3.9 10 1.4 10-4.2 0-5.3-7.4-7.9-10.4-3.6zM108.2 363.2c-.6.6-1.2 2.9-1.2 5 0 3.1.5 4.1 2.4 4.9 5.7 2.6 11.1-2.3 8.5-7.7-1.1-2.3-2.2-3-4.9-3.2-1.9-.2-4.1.3-4.8 1zM121.7 363.8c-3.7 4.1-.7 10.2 5 10.2 2.5 0 5.3-3.4 5.3-6.6 0-4.7-7.1-7.2-10.3-3.6zM134.4 364.5c-2.6 4.1-.1 9.5 4.6 9.5 3.3 0 6-2.8 6-6.3 0-5.6-7.5-8-10.6-3.2zM148.6 363.6c-3.6 3.5-1 10.4 4 10.4 2.8 0 6.4-3.2 6.4-5.8 0-5.2-6.8-8.2-10.4-4.6zM161.6 364.2c-.9 1.2-1.6 2.9-1.6 3.8 0 2.6 3 6 5.3 6 5.6 0 8.9-6.7 5.1-10.4-2.3-2.4-7-2-8.8.6zM175.2 363.2c-2.2 2.8-2.2 5.5-.1 8.1 2.2 2.8 4.8 3.4 8 1.7 1.4-.8 1.9-2.1 1.9-5s-.5-4.2-1.9-5c-2.7-1.4-6.6-1.3-7.9.2zM188.7 363.8c-2.1 2.3-2.2 5.1-.1 8 2.9 4.2 10.4 1.6 10.4-3.7 0-5.4-6.8-8.2-10.3-4.3zM201.4 364.5c-2.6 3.9-.1 9.5 4.3 9.5 4.5 0 6.3-1.7 6.3-6 0-2.9-.5-4.2-1.9-5-3.4-1.8-6.9-1.2-8.7 1.5zM215.6 363.6c-3.7 3.7-.7 10.4 4.7 10.4 2.8 0 5.7-3.2 5.7-6.2 0-4.6-7.2-7.5-10.4-4.2zM252.2 363.2c-.6.6-1.2 2.9-1.2 5 0 3.1.5 4.1 2.4 4.9 5.8 2.7 11.1-2.2 8.5-7.7-1.1-2.3-2.2-3-4.9-3.2-1.9-.2-4.1.3-4.8 1zM265.6 363.5c-.9.9-1.6 2.9-1.6 4.4 0 6.2 8 8.2 11 2.8 1.3-2.4 1.3-3 0-5.5-1.9-3.3-6.9-4.2-9.4-1.7zM278.6 364.2c-2.1 3-2 5.4.4 7.8 3.9 3.9 10 1.4 10-4.2 0-5.3-7.4-7.9-10.4-3.6zM292.2 363.2c-.6.6-1.2 2.9-1.2 5 0 3.1.5 4.1 2.4 4.9 5.7 2.6 11.1-2.3 8.5-7.7-1.1-2.3-2.2-3-4.9-3.2-1.9-.2-4.1.3-4.8 1zM305.7 363.8c-3.7 4.1-.7 10.2 5 10.2 2.5 0 5.3-3.4 5.3-6.6 0-4.7-7.1-7.2-10.3-3.6zM318.4 364.5c-2.6 4.1-.1 9.5 4.6 9.5 3.3 0 6-2.8 6-6.3 0-5.6-7.5-8-10.6-3.2zM332.6 363.6c-3.6 3.5-1 10.4 4 10.4 2.8 0 6.4-3.2 6.4-5.8 0-5.2-6.8-8.2-10.4-4.6zM345.6 364.2c-.9 1.2-1.6 2.9-1.6 3.8 0 2.6 3 6 5.3 6 5.6 0 8.9-6.7 5.1-10.4-2.3-2.4-7-2-8.8.6zM359.2 363.2c-2.2 2.8-2.2 5.5-.1 8.1 2.2 2.8 4.8 3.4 8 1.7 1.4-.8 1.9-2.1 1.9-5s-.5-4.2-1.9-5c-2.7-1.4-6.6-1.3-7.9.2zM372.7 363.8c-2.1 2.3-2.2 5.1-.1 8 2.9 4.2 10.4 1.6 10.4-3.7 0-5.4-6.8-8.2-10.3-4.3zM385.4 364.5c-2.6 3.9-.1 9.5 4.3 9.5 4.5 0 6.3-1.7 6.3-6 0-2.9-.5-4.2-1.9-5-3.4-1.8-6.9-1.2-8.7 1.5zM399.6 363.6c-3.7 3.7-.7 10.4 4.7 10.4 2.8 0 5.7-3.2 5.7-6.2 0-4.6-7.2-7.5-10.4-4.2zM436.8 363.1c-2.1 1.2-2.5 7.8-.6 9.7 1.6 1.6 7.3 1.5 8.6-.1 2.4-3 2.3-5.6-.2-8.2-2.7-2.7-5-3.1-7.8-1.4zM450.2 363.6c-2.9 2-3.1 7.9-.3 9.4 3.2 1.7 6.9 1.2 8.5-1.2 2.1-3 2-5.4-.4-7.8-2.4-2.4-4.8-2.5-7.8-.4zM463 364c-4.1 4.1-1.3 10 4.8 10 5.2 0 7.3-7.4 3-10.4-3-2.1-5.4-2-7.8.4z"/><path d="M477.2 363.6c-1.5 1-2.2 2.5-2.2 4.8 0 4 1.5 5.6 5.6 5.6 3.5 0 4.9-1.2 5.9-5.1.5-2.1.1-3.1-2.1-4.8-3.2-2.5-4.2-2.6-7.2-.5zM490.2 363.6c-2.4 1.6-2.9 5.3-1.2 8.5 1.4 2.5 7.1 2.6 9.3.1 2.1-2.3 2.2-5.1.1-8-1.8-2.6-5-2.8-8.2-.6z"/><path d="M504.3 363c-5.5 2.2-3.1 11 3 11 1.8 0 3.8-.5 4.5-1.2 1.8-1.8 1.4-7.3-.6-9.1-2-1.9-3.6-2-6.9-.7zM516.7 363.8c-1.9 2.1-2.2 5.4-.7 8.3 1.5 2.8 7.4 2.6 9.4-.3 2.1-3 2-5.4-.4-7.8-2.5-2.5-6.2-2.6-8.3-.2zM530 364c-4.1 4.1-1.3 10 4.8 10 5.2 0 7.3-7.4 3-10.4-3-2.1-5.4-2-7.8.4zM543.1 364.7c-2.1 2.6-2.1 5.3.1 8 1.3 1.6 7 1.7 8.6.1 2.1-2.1 1.5-7.5-1-9.2-3.2-2.3-5.4-2-7.7 1.1zM557.2 363.6c-2.4 1.6-2.9 5.3-1.2 8.5 1.4 2.5 7.1 2.6 9.3.1 3.5-3.8.7-10.2-4.3-10.2-.9 0-2.6.7-3.8 1.6zM571.3 363c-3 1.2-3.9 5.4-1.9 8.5 2.1 3.2 8 3.5 9.6.6 1.7-3.2 1.2-6.9-1.2-8.5-2.5-1.8-3.3-1.9-6.5-.6zM584.2 363.6c-2.5 1.7-3.1 7.1-1 9.2 2.1 2.1 7.5 1.5 9.2-1 2.1-3 2-5.4-.4-7.8-2.4-2.4-4.8-2.5-7.8-.4zM70 375.7c-2.2.9-3 2.4-3 5.8 0 4 1.6 5.5 5.7 5.5 2.3 0 3.7-.7 4.8-2.4 3.4-5.2-1.6-11.1-7.5-8.9zM82.3 376.5c-2.6 1.8-3.2 7.2-1.1 9.3 1.8 1.8 7.3 1.4 9.1-.6 4.8-5.3-2.2-12.8-8-8.7z"/><path d="M95 377c-3.9 3.9-1.4 10 4.3 10 5.5 0 7.9-7.3 3.5-10.4-3-2.1-5.4-2-7.8.4zM109.2 376.6c-1.5 1-2.2 2.5-2.2 4.8 0 4.1 1.5 5.6 5.7 5.6 6.2 0 8.4-8.9 2.6-11.1-3.2-1.2-3.5-1.2-6.1.7z"/><path d="M122.1 376.9c-2.6 2.6-2.7 6.2-.3 8.4 4 3.6 10.2.9 10.2-4.5 0-4.8-6.4-7.4-9.9-3.9zM135.6 376.5c-4.2 4.3-2 10.5 3.7 10.5 4.2 0 5.7-1.5 5.7-5.6 0-5.2-5.9-8.3-9.4-4.9zM149.2 376.6c-4.5 3.1-1.9 10.4 3.7 10.4 4 0 6.5-3.1 5.6-6.9-1-4.8-5.2-6.4-9.3-3.5zM162 377c-5.3 5.3 1.3 12.6 8.1 9 2.8-1.5 2.6-7.4-.3-9.4-3-2.1-5.4-2-7.8.4z"/><path d="M176.7 376.1c-5.4 3.1-3.5 10.9 2.6 10.9 4.3 0 5.7-1.5 5.7-6 0-3-.5-3.9-2.5-4.8-3.1-1.4-3.5-1.4-5.8-.1zM189.3 376.5c-2.7 1.9-3.1 6.6-.7 8.9.8.9 2.8 1.6 4.4 1.6 3.6 0 6-2.4 6-5.9 0-4.8-5.7-7.4-9.7-4.6z"/><path d="M203.3 376c-5.5 2.2-3.1 11 3 11 4.2 0 5.7-1.5 5.7-5.6 0-2.3-.7-3.8-2.2-4.8-2.5-1.8-3.3-1.9-6.5-.6zM254 375.7c-2.2.9-3 2.4-3 5.8 0 4 1.6 5.5 5.7 5.5 2.3 0 3.7-.7 4.8-2.4 3.4-5.2-1.6-11.1-7.5-8.9zM266.3 376.5c-2.6 1.8-3.2 7.2-1.1 9.3 1.8 1.8 7.3 1.4 9.1-.6 4.8-5.3-2.2-12.8-8-8.7z"/><path d="M279 377c-3.9 3.9-1.4 10 4.3 10 5.5 0 7.9-7.3 3.5-10.4-3-2.1-5.4-2-7.8.4zM293.2 376.6c-1.5 1-2.2 2.5-2.2 4.8 0 4.1 1.5 5.6 5.7 5.6 6.2 0 8.4-8.9 2.6-11.1-3.2-1.2-3.5-1.2-6.1.7z"/><path d="M306.1 376.9c-2.6 2.6-2.7 6.2-.3 8.4 4 3.6 10.2.9 10.2-4.5 0-4.8-6.4-7.4-9.9-3.9zM319.6 376.5c-4.2 4.3-2 10.5 3.7 10.5 4.2 0 5.7-1.5 5.7-5.6 0-5.2-5.9-8.3-9.4-4.9zM333.2 376.6c-4.5 3.1-1.9 10.4 3.7 10.4 4 0 6.5-3.1 5.6-6.9-1-4.8-5.2-6.4-9.3-3.5zM346 377c-5.3 5.3 1.3 12.6 8.1 9 2.8-1.5 2.6-7.4-.3-9.4-3-2.1-5.4-2-7.8.4z"/><path d="M360.7 376.1c-5.4 3.1-3.5 10.9 2.6 10.9 4.3 0 5.7-1.5 5.7-6 0-3-.5-3.9-2.5-4.8-3.1-1.4-3.5-1.4-5.8-.1zM373.3 376.5c-2.7 1.9-3.1 6.6-.7 8.9.8.9 2.8 1.6 4.4 1.6 3.6 0 6-2.4 6-5.9 0-4.8-5.7-7.4-9.7-4.6zM387.3 376c-5.5 2.2-3.1 11 3 11 4.2 0 5.7-1.5 5.7-5.6 0-2.3-.7-3.8-2.2-4.8-2.5-1.8-3.3-1.9-6.5-.6zM451 376.3c-2.8 1.4-4 6.8-1.9 9.3 1.8 2.2 8.6 1.8 9.9-.5 1.6-3 1.2-5-1.5-7.6-2.8-2.9-3.1-2.9-6.5-1.2zM465.1 376.3c-3.6 1.8-4.7 4.1-3.5 7.4.8 2.3 1.6 2.9 4.7 3.1 2.1.2 4.5-.2 5.3-.9 2-1.7 1.7-6.6-.6-8.9-2.3-2.3-2.7-2.4-5.9-.7zM478 376.3c-2.8 1.4-4 6.8-1.9 9.3 1.8 2.2 7.5 1.8 9.3-.8 2.2-3.1 2-4.5-.9-7.3-2.8-2.9-3.1-2.9-6.5-1.2zM491.7 376.2c-3.2 1.1-4.5 4.8-2.8 8.4.9 2 1.8 2.4 5 2.4 3 0 4.3-.5 5.1-1.9 1.6-3 1.2-5.9-1-8.1-2.2-2.2-2.4-2.3-6.3-.8zM505.2 376c-3.1 1.3-4.6 4.9-3.3 8.3.9 2.3 1.6 2.7 4.9 2.7 4.7 0 6.2-1.4 6.2-5.6 0-2.3-.7-3.8-2.2-4.8-2.5-1.8-2.5-1.8-5.6-.6zM519 375.7c-3.7 1.3-5.4 7.5-2.8 10.1 2 2 8.6 1.5 9.8-.7 1.6-3 1.2-5-1.5-7.6-2.5-2.6-2.9-2.7-5.5-1.8zM530.6 377.1c-4.8 3.8-2.8 9.9 3.2 9.9 4.4 0 6.2-1.4 6.2-5 0-3.1-.8-4.4-3.7-5.9-2.8-1.4-2.6-1.5-5.7 1zM543.5 377.4c-2.4 2.4-2.7 5.5-.8 8.8.7 1.3 7.8.9 9.1-.4 1.6-1.6 1.5-7.3 0-8.6-3.1-2.4-5.7-2.3-8.3.2zM559 375.8c-2.3.7-4 3.3-4 6.2 0 3.6 1.7 5 6.2 5 3.9 0 5.8-1.9 5.8-5.8 0-3.1-4.8-6.4-8-5.4zM570.5 377.4c-2.7 2.7-3.1 4.6-1.5 7.7 1.2 2.2 7.8 2.7 9.8.7 1.6-1.6 1.5-7.3 0-8.6-3.1-2.4-5.7-2.3-8.3.2zM584.1 376.9c-2.3 2.3-2.8 7-.9 8.9.7.7 2.9 1.2 4.9 1.2 3.1 0 3.8-.4 4.9-3 1-2.5 1-3.4-.4-5.5-.9-1.4-2-2.5-2.5-2.5s-1.6-.3-2.4-.6c-.9-.3-2.5.4-3.6 1.5zM214 397.4c0 2.8.3 3.3 2.2 3.2 1.8-.1 2.3-.8 2.5-3.4.2-2.8 0-3.2-2.2-3.2s-2.5.4-2.5 3.4zM67.4 399.4c-.3 1.3-.4 3.7-.2 5.2.3 2.8.6 2.9 6.3 3.5l6 .6-5.5.3c-3 .1-5.8.2-6.2.1-.5 0-.8 1-.8 2.4v2.6l8.8-.3 8.7-.3.3-2.9c.7-6.2-.3-7.5-6.6-7.9l-5.7-.3 6.3-.2c5.9-.2 6.2-.3 6.2-2.7 0-2.5-.1-2.5-8.5-2.5-8.1 0-8.5.1-9.1 2.4zM88 399.5c0 2.1.5 2.5 3 2.5h3v12h6v-12h3c2.5 0 3-.4 3-2.5 0-2.5-.1-2.5-9-2.5s-9 0-9 2.5zM109.2 405.2l.3 8.3h17l.3-8.3c.3-8.2.2-8.3-2-8-2.1.3-2.3.8-2.3 6.4v6.1l-4-.4c-2.2-.3-4.1-.6-4.3-.8-.2-.2-.4-2.9-.4-5.9-.1-5.2-.3-5.6-2.5-5.6-2.3 0-2.4.1-2.1 8.2zM130 405.5v8.6l8.8-.3 8.7-.3.3-6c.5-10.4.5-10.5-9.3-10.5H130v8.5zm13.5.5v3.5l-4.1-.3c-3.8-.4-4.2-.7-4.6-3.3-.6-3.7-.2-4.1 4.6-3.7 3.8.3 4 .5 4.1 3.8zM152.3 398.5c-.8.8-1.3 4.1-1.3 7.9 0 7.6 0 7.6 11.1 7.6 7.7 0 7.9-.1 7.9-2.4 0-2.4-.3-2.5-6.6-2.5-3.6 0-6.9-.2-7.2-.5-.3-.3 2.7-.6 6.6-.6 7 0 7.2-.1 7.2-2.5 0-2.3-.3-2.4-7.2-2.8l-7.3-.3 7.3-.2c7-.2 7.2-.3 7.2-2.7 0-2.5-.1-2.5-8.2-2.5-5.9.1-8.7.5-9.5 1.5zM172 405.5c0 8.4 0 8.5 2.5 8.5 2.4 0 2.5-.3 2.5-6v-6h9v6c0 5.7.1 6 2.5 6s2.5-.2 2.5-7.1c0-9.3-.7-9.9-10.9-9.9H172v8.5zM193 399.5c0 2.1.5 2.5 3 2.5h3v12h7v-12h3c2.5 0 3-.4 3-2.5 0-2.5 0-2.5-9.5-2.5s-9.5 0-9.5 2.5zM220.4 399.4c-.3 1.3-.4 3.7-.2 5.2.3 2.8.6 2.9 6.3 3.5l6 .6-5.5.3c-3 .1-5.8.2-6.2.1-.5 0-.8 1-.8 2.4v2.6l8.8-.3 8.7-.3.3-2.9c.7-6.2-.3-7.5-6.6-7.9l-5.7-.3 6.3-.2c5.9-.2 6.2-.3 6.2-2.7 0-2.5-.1-2.5-8.5-2.5-8.1 0-8.5.1-9.1 2.4zM252.4 399.4c-.3 1.3-.4 3.7-.2 5.2.3 2.8.6 2.9 6.3 3.5l6 .6-5.5.3c-3 .1-5.8.2-6.2.1-.5 0-.8 1-.8 2.4v2.6l8.8-.3 8.7-.3.3-2.9c.7-6.2-.3-7.5-6.6-7.9l-5.7-.3 6.3-.2c5.9-.2 6.2-.3 6.2-2.7 0-2.5-.1-2.5-8.5-2.5-8.1 0-8.5.1-9.1 2.4zM273.5 399.3c-.4 1.3-.5 5-.3 8.2l.3 6 8.8.3c8.6.3 8.7.3 8.7-2.1 0-2.3-.3-2.5-6-2.5-3.4 0-6.3-.1-6.5-.3-.1-.2-.5-1.8-.7-3.4l-.3-3 6.8-.3c6.4-.3 6.7-.4 6.7-2.7 0-2.5-.1-2.5-8.5-2.5-8 0-8.5.1-9 2.3zM294 405.5v8.5h6v-17h-6v8.5zM302.5 399.3c-.4 1.3-.5 5-.3 8.2l.3 6 8.8.3c8.6.3 8.7.3 8.7-2.2 0-2.3-.3-2.4-6.1-2.5-3.4 0-6.4-.3-6.7-.6-.3-.3 2.5-.5 6.1-.5 6.4 0 6.7-.1 6.7-2.5 0-2.3-.3-2.4-6.7-2.8l-6.8-.3 6.8-.2c6.4-.2 6.7-.3 6.7-2.7 0-2.5-.1-2.5-8.5-2.5-8 0-8.5.1-9 2.3zM323 405.5c0 8.5 0 8.5 2.6 8.5 2.5 0 2.5-.2 2.3-5.8l-.3-5.7h8.9l-.1 5.7c-.1 5.4.1 5.8 2.3 5.8 2.2 0 2.3-.3 2.3-6.9 0-10.3.2-10.1-9.6-10.1H323v8.5zM344 399.5c0 2.1.5 2.5 3 2.5h3v12h6v-12h3c2.5 0 3-.4 3-2.5 0-2.5-.1-2.5-9-2.5s-9 0-9 2.5zM365 405.5v8.5h6v-17h-6v8.5zM373.6 398.6c-.3.9-.6 4.7-.6 8.5 0 6.7.1 6.9 2.5 6.9 2.1 0 2.5-.5 2.5-3v-3h6.5c6.2 0 6.5-.1 6.5-2.5 0-2.3-.3-2.4-6.7-2.8l-6.8-.3 6.8-.2c6.4-.2 6.7-.3 6.7-2.7 0-2.5-.1-2.5-8.4-2.5-6.7 0-8.5.3-9 1.6zM394 405.5v8.5h6v-17h-6v8.5zM402.5 399.3c-.4 1.3-.5 5-.3 8.2l.3 6 8.8.3c8.6.3 8.7.3 8.7-2.1 0-2.3-.3-2.5-6-2.5-3.4 0-6.3-.1-6.5-.3-.1-.2-.5-1.8-.7-3.4l-.3-3 6.8-.3c6.4-.3 6.7-.4 6.7-2.7 0-2.5-.1-2.5-8.5-2.5-8 0-8.5.1-9 2.3zM434.5 399.3c-.4 1.3-.5 5-.3 8.2l.3 6 8.8.3c8.6.3 8.7.3 8.7-2.1 0-2.3-.3-2.5-6-2.5-3.4 0-6.3-.1-6.5-.3-.1-.2-.5-1.8-.7-3.4l-.3-3 6.8-.3c6.4-.3 6.7-.4 6.7-2.7 0-2.5-.1-2.5-8.5-2.5-8 0-8.5.1-9 2.3zM455 405.5c0 8.4 0 8.5 2.5 8.5 2.1 0 2.5-.5 2.5-3.1 0-2.9.1-3 4.3-2.7 3.9.3 4.2.5 4.1 3-.1 2.3.3 2.8 2.2 2.8 2.3 0 2.4-.2 2.4-8.6 0-8.3-.1-8.5-2.2-8.2-1.3.2-2.4 1-2.4 1.8-.1.8-.2 2.1-.3 2.7-.1.8-1.6 1.3-4.1 1.3-4 0-4.4-.5-4.1-4.3.2-1.2-.5-1.7-2.3-1.7-2.6 0-2.6 0-2.6 8.5zM476 399.5c0 2.4.3 2.5 6.3 2.7 5.8.1 5.9.2 1.3.5-5.8.5-7.6 2-7.6 6.6 0 4.3.9 4.7 11.1 4.7h7.9v-7.1c0-9.3-.7-9.9-10.9-9.9-8 0-8.1 0-8.1 2.5zm13.6 9.2c-.7.7-7.7.5-8.5-.3-.2-.2 1.7-.4 4.4-.4s4.5.3 4.1.7zM497 405.5c0 8.4 0 8.5 2.5 8.5 2.1 0 2.5-.5 2.5-3 0-3 .1-3 5.4-3 7.5 0 8.6-.6 8.6-4.7 0-5.3-1.7-6.3-10.9-6.3H497v8.5zm12.8-2.8c-1 .2-2.8.2-4 0-1.3-.2-.5-.4 1.7-.4 2.2-.1 3.2.1 2.3.4zM518 399.5c0 2.1.5 2.5 3 2.5h3v12h7v-12h3c2.5 0 3-.4 3-2.5 0-2.5 0-2.5-9.5-2.5s-9.5 0-9.5 2.5zM540.3 398.5c-.8.8-1.3 4.1-1.3 7.9 0 7.6 0 7.6 11.1 7.6 7.7 0 7.9-.1 7.9-2.4 0-2.4-.3-2.5-6.6-2.5-3.6 0-6.9-.2-7.2-.5-.3-.3 2.7-.6 6.6-.6 7 0 7.2-.1 7.2-2.5 0-2.3-.3-2.4-7.2-2.8l-7.3-.3 7.3-.2c7-.2 7.2-.3 7.2-2.7 0-2.5-.1-2.5-8.2-2.5-5.9.1-8.7.5-9.5 1.5zM560 405.5v8.5h3.5c3.2 0 3.5-.2 3.5-3.1v-3.1l2.7 3.1c2 2.3 3.6 3.1 6 3.1 1.8 0 3.3-.3 3.3-.6s-1.5-1.8-3.2-3.5c-2.5-2.3-2.9-2.9-1.5-2.9 2.5 0 4.7-2.4 4.7-5 0-4-2.3-5-10.9-5H560v8.5zm12.8-2.8c-1 .2-2.8.2-4 0-1.3-.2-.5-.4 1.7-.4 2.2-.1 3.2.1 2.3.4z"/></svg>