<?xml version="1.0" encoding="utf-8"?>
<!-- Generator: Adobe Illustrator 17.0.0, SVG Export Plug-In . SVG Version: 6.00 Build 0)  -->
<!DOCTYPE svg PUBLIC "-//W3C//DTD SVG 1.1//EN" "http://www.w3.org/Graphics/SVG/1.1/DTD/svg11.dtd">
<svg version="1.1" id="Layer_1" xmlns="http://www.w3.org/2000/svg" xmlns:xlink="http://www.w3.org/1999/xlink" x="0px" y="0px"
	 width="124.471px" height="124.033px" viewBox="0 0 124.471 124.033" enable-background="new 0 0 124.471 124.033"
	 xml:space="preserve">
<g>
	<path fill="#FFFFFF" d="M122.385,61.879c-0.082,2.506,0.338,5.048-0.299,7.522c-1.048,4.07-1.287,8.353-2.828,12.268
		c-1.566,3.98-3.177,7.957-5.566,11.589c-1.908,2.901-3.978,5.64-6.23,8.27c-3.44,4.018-7.584,7.17-11.878,10.208
		c-4.252,3.008-8.953,5.105-13.759,6.842c-4.154,1.502-8.531,2.436-13.022,2.784c-2.644,0.205-5.286,0.656-7.946,0.671
		c-3.34,0.018-6.633-0.52-9.933-1.03c-2.528-0.391-5.052-0.814-7.451-1.638c-3.107-1.068-6.263-2.03-9.125-3.773
		c-1.271-0.774-2.698-1.34-4.003-2.101c-2.331-1.36-4.483-2.974-6.602-4.633c-2.738-2.144-5.208-4.582-7.522-7.161
		c-1.61-1.795-2.937-3.827-4.349-5.784c-1.549-2.147-2.913-4.369-4.111-6.69c-2.454-4.753-4.003-9.818-5.24-15.031
		c-1.089-4.593-1.378-9.205-1.167-13.845c0.159-3.504,0.321-7.046,1.369-10.463c0.687-2.239,0.832-4.638,1.782-6.798
		c1.836-4.174,3.188-8.539,5.766-12.418c2.008-3.021,4.074-6.027,6.345-8.802c2.305-2.817,4.998-5.388,8.07-7.533
		c1.807-1.262,3.545-2.669,5.358-3.949c1.792-1.265,3.817-2.121,5.767-3.1c3.246-1.63,6.747-2.626,10.113-3.959
		c1.831-0.725,3.806-0.844,5.712-1.233c4.638-0.947,9.363-0.866,14.065-0.726c4.667,0.139,9.196,1.011,13.682,2.428
		c4.392,1.388,8.57,3.18,12.585,5.367c5.056,2.755,9.439,6.391,13.535,10.439c1.763,1.742,3.269,3.702,4.813,5.577
		c1.625,1.974,3.041,4.234,4.228,6.588c1.049,2.081,2.455,3.994,3.163,6.239c0.734,2.327,2.077,4.424,2.322,6.955
		c0.146,1.514,0.883,2.951,1.201,4.486C122.081,53.553,122.709,57.665,122.385,61.879z M3.864,63.848
		c0.535,14.879,6.268,29.241,18.854,40.425c12.532,11.136,27.373,16.252,44.034,14.798c17.913-1.564,32.428-9.795,42.863-24.577
		c8.221-11.645,11.744-24.819,10.11-38.92c-1.852-15.99-8.98-29.651-21.871-39.454C85.746,6.91,71.825,2.225,56.373,4.017
		C39.445,5.98,25.596,13.919,15.351,27.414C7.683,37.515,4.008,49.285,3.864,63.848z"/>
	<path fill="#FFFFFF" d="M117.884,62.123c-0.072,2.069,0.114,4.537-0.379,7c-0.212,1.062-0.656,1.469-1.625,1.477
		c-1.6,0.013-3.203,0.065-4.799-0.021c-1.064-0.057-1.694,0.526-1.837,1.35c-0.278,1.609-0.53,3.202-1.126,4.737
		c-0.303,0.78,0.302,1.186,0.914,1.438c1.148,0.472,2.216,1.101,3.327,1.636c2.688,1.295,2.381,2.125,1.209,4.474
		c-1.043,2.09-2.037,4.242-3.272,6.21c-1.167,1.86-2.185,3.877-3.827,5.426c-0.855,0.807-1.759,0.837-2.744,0.288
		c-1.185-0.66-2.372-1.316-3.56-1.971c-0.772-0.426-1.582-0.442-2.261,0.092c-0.876,0.689-1.71,1.447-2.468,2.264
		c-1.224,1.32-1.223,2.104-0.165,3.608c0.799,1.137,1.544,2.305,2.133,3.568c0.296,0.633,0.186,1.151-0.344,1.605
		c-2.959,2.534-6.27,4.525-9.784,6.156c-1.295,0.601-2.453,1.444-3.863,1.875c-1.217,0.373-1.828-0.069-2.37-0.945
		c-0.839-1.354-1.654-2.724-2.441-4.108c-0.32-0.564-0.711-0.835-1.361-0.668c-1.544,0.396-3.092,0.775-4.634,1.18
		c-1.021,0.268-1.504,0.881-1.439,2.007c0.083,1.435,0.029,2.878,0.017,4.318c-0.01,1.322-0.703,2.043-2.024,2.162
		c-3.618,0.325-7.242,0.48-10.875,0.389c-1.356-0.034-2.66-0.45-4.031-0.466c-0.919-0.011-1.35-0.719-1.341-1.667
		c0.015-1.68-0.026-3.36,0.002-5.039c0.011-0.658-0.209-1-0.855-1.225c-1.472-0.512-2.983-0.846-4.495-1.2
		c-0.904-0.211-1.449,0.072-1.852,0.852c-0.674,1.305-1.374,2.597-2.059,3.897c-0.612,1.161-1.462,1.612-2.756,1.051
		c-3.141-1.362-6.226-2.797-9.101-4.707c-1.349-0.896-2.756-1.735-4.123-2.621c-0.885-0.574-1.454-1.217-0.734-2.345
		c0.92-1.442,1.752-2.94,2.639-4.403c0.452-0.745,0.292-1.33-0.321-1.909c-0.956-0.902-1.851-1.871-2.808-2.773
		c-0.713-0.672-1.515-0.874-2.372-0.206c-1.223,0.954-2.709,1.49-3.906,2.506c-0.752,0.638-2.137,0.186-2.763-0.805
		c-1.93-3.051-4.097-5.947-5.801-9.146c-0.757-1.421-1.231-2.937-1.809-4.419c-0.321-0.823,0.237-1.263,0.833-1.641
		c1.415-0.897,2.824-1.807,4.264-2.664c0.861-0.513,1.111-1.088,0.713-2.079c-0.514-1.281-0.867-2.63-1.251-3.96
		c-0.23-0.797-0.65-1.188-1.539-1.158c-1.678,0.056-3.359,0.002-5.039,0.021C6.79,71.576,6.457,71.11,6.292,70.13
		c-0.662-3.935-0.198-7.892-0.393-11.832c-0.069-1.386,0.362-2.674,0.459-4.019c0.051-0.701,0.598-0.715,1.16-0.708
		c1.679,0.022,3.359,0.018,5.038,0.012c0.843-0.003,1.355-0.323,1.633-1.234c0.485-1.586,1.241-3.086,1.342-4.785
		c0.028-0.474,0.029-0.94-0.404-1.165c-1.266-0.656-2.238-1.755-3.659-2.201c-1.831-0.575-2.093-1.524-1.453-3.324
		c1.141-3.213,2.878-6.12,4.507-9.077c0.758-1.376,1.835-2.577,2.786-3.844c0.505-0.673,1.256-0.824,1.934-0.468
		c1.011,0.53,2.124,0.844,3.017,1.647c1.581,1.423,2.743,1.25,4.164-0.344c0.712-0.799,1.536-1.501,2.331-2.222
		c0.624-0.566,0.714-1.143,0.334-1.918c-0.705-1.443-1.614-2.75-2.502-4.076c-0.735-1.097-0.64-1.908,0.517-2.827
		c3.985-3.164,8.416-5.564,12.918-7.854c0.948-0.482,1.727-0.326,2.457,0.671c0.928,1.269,1.455,2.723,2.233,4.054
		c0.811,1.387,1.15,1.516,2.638,0.977c1.305-0.473,2.678-0.766,4.03-1.105c0.705-0.177,0.969-0.601,0.964-1.299
		c-0.013-1.839,0.035-3.68-0.011-5.518c-0.02-0.781,0.271-1.332,1.003-1.367C54.73,6.24,56.04,5.69,57.472,5.773
		c1.901,0.111,3.774-0.801,5.684-0.389c2.145,0.463,4.358,0.227,6.491,0.77c0.798,0.203,1.127,0.605,1.116,1.425
		c-0.023,1.719,0.066,3.441,0.007,5.158c-0.035,1.028,0.512,1.457,1.354,1.668c1.429,0.358,2.874,0.657,4.304,1.013
		c1.091,0.271,1.851-0.106,2.129-1.168c0.396-1.508,1.396-2.684,2.08-4.031c0.585-1.15,1.589-1.378,2.837-0.502
		c0.941,0.661,2.018,0.91,2.987,1.44c3.455,1.887,6.981,3.65,9.911,6.364c0.723,0.67,0.818,1.189,0.283,2.048
		c-0.945,1.517-1.736,3.128-2.601,4.695c-0.179,0.324-0.123,0.549,0.106,0.854c1.171,1.562,2.917,2.589,3.92,4.323
		c0.429,0.741,1.095,0.161,1.582-0.103c1.505-0.817,2.991-1.669,4.464-2.542c0.987-0.585,1.841-0.326,2.418,0.506
		c2.555,3.689,4.954,7.477,6.882,11.541c0.255,0.537,0.41,1.122,0.606,1.687c0.358,1.032,0.072,1.717-0.963,2.212
		c-1.325,0.633-2.616,1.357-3.854,2.149c-0.763,0.488-1.305,1.036-0.898,2.252c0.38,1.135,0.826,2.303,0.895,3.578
		c0.055,1.019,0.627,1.821,1.964,1.738c1.634-0.101,3.278-0.012,4.918-0.02c0.873-0.004,1.273,0.393,1.392,1.278
		C117.844,56.377,117.892,59.049,117.884,62.123z M15.094,66.008c0,0.008,0,0.015,0,0.023c1.04,0,2.08-0.012,3.119,0.004
		c0.637,0.01,1.029,0.277,1.103,0.99c0.426,4.088,1.372,8.027,3.236,11.73c0.414,0.823,0.798,1.963-0.342,2.554
		c-1.634,0.847-3.024,2.04-4.592,2.962c-0.807,0.474-0.835,0.908-0.389,1.628c0.773,1.248,1.732,2.375,2.327,3.741
		c0.384,0.881,1.11,0.882,1.771,0.353c1.353-1.084,2.926-1.757,4.451-2.526c0.592-0.298,1.068-0.187,1.654,0.176
		c1.357,0.838,1.872,2.364,2.957,3.385c2.018,1.9,4.029,3.821,6.33,5.395c0.797,0.545,0.992,1.31,0.393,2.044
		c-1.12,1.375-1.576,3.112-2.596,4.522c-0.435,0.602-0.232,1.031,0.223,1.315c1.449,0.906,2.932,1.761,4.43,2.586
		c0.559,0.308,1.015,0.197,1.334-0.501c0.545-1.192,1.207-2.331,1.823-3.49c1.056-1.988,1.684-2.177,3.855-1.449
		c3.689,1.237,7.328,2.692,11.275,2.935c0.894,0.055,1.28,0.495,1.277,1.372c-0.006,1.76,0.023,3.519,0.016,5.279
		c-0.003,0.74,0.281,1.103,1.067,1.088c1.599-0.032,3.2-0.04,4.799-0.009c0.819,0.016,1.157-0.299,1.142-1.127
		c-0.03-1.719,0.053-3.442-0.022-5.158c-0.058-1.323,0.655-1.882,1.782-1.9c3.951-0.061,7.471-1.729,11.113-2.918
		c1.499-0.489,2.672-0.134,3.341,1.298c0.556,1.191,1.165,2.356,1.758,3.53c0.408,0.808,1.116,0.997,1.804,0.547
		c1.462-0.957,3.12-1.573,4.498-2.673c0.419-0.334,0.657-0.606,0.162-1.031c-0.441-0.379-0.582-0.954-0.916-1.388
		c-0.877-1.138-1.055-2.665-2.184-3.678c-0.595-0.534-0.277-1.124,0.31-1.611c3.171-2.629,6.414-5.18,8.805-8.62
		c0.572-0.823,1.494-1.261,2.529-0.655c1.205,0.704,2.38,1.459,3.574,2.181c1.016,0.615,1.956,0.73,2.652-0.472
		c0.697-1.203,1.321-2.455,2.103-3.598c0.738-1.079,0.287-1.751-0.687-2.004c-1.486-0.386-2.564-1.441-3.891-2.076
		c-0.682-0.327-1.57-0.882-1.19-1.835c0.724-1.816,1.1-3.742,1.796-5.545c0.829-2.148,1.419-4.306,1.437-6.596
		c0.009-1.192,0.516-1.662,1.671-1.632c1.599,0.041,3.2,0.005,4.799,0.043c0.732,0.017,1.125-0.238,1.448-0.943
		c0.732-1.596,0.422-3.232,0.244-4.82c-0.124-1.105-0.813-1.874-2.245-1.687c-1.337,0.175-2.721-0.048-4.073,0.058
		c-1.401,0.11-1.801-0.354-1.887-1.795c-0.111-1.878-0.563-3.764-1.098-5.58c-0.596-2.023-1.44-3.973-2.197-5.947
		c-0.291-0.76-0.149-1.358,0.597-1.702c1.527-0.705,2.763-1.888,4.261-2.611c1.22-0.588,1.166-1.445,0.694-2.362
		c-0.619-1.204-1.384-2.334-2.093-3.492c-0.345-0.564-0.8-0.72-1.422-0.407c-1.439,0.725-2.944,1.309-4.155,2.448
		c-1.068,1.004-2.055,0.845-2.831-0.264c-2.32-3.317-5.142-6.144-8.471-8.445c-1.6-1.106-1.765-1.712-0.59-3.298
		c0.909-1.226,1.538-2.596,2.2-3.955c0.373-0.766,0.217-1.267-0.538-1.666c-1.37-0.725-2.71-1.508-4.077-2.24
		c-0.585-0.313-0.995-0.183-1.344,0.474c-0.616,1.157-1.256,2.284-1.723,3.526c-0.592,1.573-1.955,2.425-2.882,2.062
		c-3.956-1.55-8.048-2.604-12.232-3.297c-0.872-0.145-1.275-0.52-1.265-1.403c0.019-1.599,0.029-3.199-0.007-4.798
		c-0.027-1.17-0.552-1.869-1.856-1.798c-1.396,0.076-2.795,0.105-4.193,0.113c-0.969,0.006-1.333,0.431-1.301,1.403
		c0.058,1.718,0.029,3.439,0.015,5.159c-0.005,0.605-0.027,1.39-0.781,1.414c-1.221,0.038-2.314,0.627-3.437,0.752
		c-3.178,0.355-6.099,1.458-9.022,2.588c-1.114,0.431-1.772,0.114-2.443-0.761c-0.907-1.183-1.246-2.659-2.175-3.845
		c-0.583-0.744-1.187-1.002-1.936-0.677c-1.485,0.645-2.918,1.397-4.198,2.431c-0.667,0.539-0.678,0.999-0.153,1.57
		c1.229,1.336,1.806,3.076,2.828,4.538c0.4,0.573,0.306,1.015-0.227,1.437c-0.835,0.662-1.683,1.313-2.468,2.031
		c-2.581,2.358-4.963,4.912-7.181,7.61c-0.573,0.696-1.088,0.62-1.762,0.32c-1.271-0.566-2.498-1.147-3.566-2.11
		c-0.646-0.583-1.802-1.36-2.471-0.208c-0.809,1.393-1.899,2.634-2.386,4.233c-0.249,0.816-0.161,1.371,0.613,1.643
		c1.679,0.589,2.956,1.883,4.606,2.524c0.718,0.279,0.994,0.944,0.758,1.688c-0.346,1.092-0.685,2.2-1.173,3.232
		c-1.331,2.819-1.857,5.819-2.081,8.883c-0.107,1.466-0.464,1.937-1.935,1.949c-1.679,0.014-3.359,0.011-5.038-0.024
		c-0.748-0.015-1.109,0.239-1.1,1.033c0.019,1.599,0.007,3.199-0.031,4.798c-0.019,0.806,0.384,1.052,1.11,1.036
		C13.255,65.993,14.174,66.008,15.094,66.008z"/>
	<path fill="#FFFFFF" d="M63.133,73.725c-0.557,0.039-1.114,0.077-1.671,0.119c-0.517,0.039-0.955,0.179-0.99,0.81
		c-0.039,0.689,0.429,0.919,0.976,0.979c1.051,0.115,2.123,0.079,3.467,0.484c-1.067,0.379-1.856,0.248-2.628,0.263
		c-0.821,0.016-1.846,0.482-2.324,0.386c-1.191-0.238-2.349,0.057-3.47-0.156c-1.417-0.27-2.832-0.431-4.229-0.167
		c-0.526,0.099-0.908,0.451-1.295-0.18c-0.301-0.493-0.769-0.377-1.164-0.164c-0.269,0.145-0.578,0.438-0.474,0.76
		c0.159,0.493,0.672,0.309,1.043,0.354c5.044,0.616,10.104,0.958,15.19,0.82c4.377-0.119,8.666-0.831,12.916-1.841
		c0.937-0.222,1.281-0.741,0.923-1.665c-0.014-0.037-0.029-0.075-0.038-0.114c-0.516-2.284-1.573-3.793-4.224-4.106
		c-3.372-0.398-6.733-0.939-10.126-1.072c-5.635-0.222-11.269-0.201-16.861,0.723c-0.524,0.087-0.861,0.274-1.03,0.826
		c-0.614,2.004-1.971,3.748-2.043,5.956c-0.011,0.331-0.094,1.007-0.682,0.95c-0.443-0.043-0.477-0.575-0.584-0.958
		c-0.395-1.414,0.246-2.625,0.64-3.928c0.825-2.733,2.703-3.495,5.362-3.839c8.055-1.043,16.089-1.22,24.152-0.262
		c1.252,0.149,2.45,0.472,3.776,0.356c1.008-0.088,1.773,0.979,2.131,1.983c0.544,1.527,0.772,3.151,1.672,4.57
		c0.462,0.73-0.232,1.462-0.541,2.092c-0.306,0.622-0.674,0.033-1.005-0.228c-0.275-0.216-0.617-0.033-0.917,0.064
		c-6.632,2.143-13.459,2.105-20.305,1.796c-3.759-0.17-7.493-0.553-11.12-1.641c-0.369-0.111-0.988-0.067-0.976-0.516
		c0.016-0.597,0.612-0.25,0.957-0.304c0.907-0.143,0.823-0.714,0.385-1.178c-0.739-0.783-0.496-1.057,0.428-1.179
		c0.531-0.07,1.092-0.159,0.31-0.785c-0.55-0.44-0.372-0.777,0.241-0.847c0.78-0.088,1.539-0.467,2.359-0.162
		c0.384,0.143,0.792,0.083,1.135-0.192c0.201-0.161,0.319-0.368,0.264-0.625c-0.068-0.318-0.336-0.298-0.572-0.276
		c-0.756,0.07-1.509,0.17-2.266,0.224c-0.327,0.024-0.837,0.281-0.931-0.191c-0.102-0.507,0.459-0.559,0.827-0.668
		c1.315-0.39,2.682-0.526,4.032-0.527c2.786-0.002,5.58-0.177,8.359,0.165c0.355,0.044,0.987-0.148,0.965,0.385
		c-0.02,0.468-0.639,0.341-1.016,0.353c-0.839,0.027-1.679,0.022-2.518,0.015c-0.461-0.004-0.902,0.02-1.069,0.551
		c-0.11,0.351-0.167,0.725,0.16,0.999c0.408,0.341,0.819,0.238,1.195-0.073c0.191-0.157,0.372-0.346,0.597-0.074
		C61.226,73.633,62.241,73.507,63.133,73.725z M54.846,71.478c-0.532,0.01-0.941,0.116-1.165,0.581
		c-0.116,0.24-0.145,0.5,0.106,0.631c0.406,0.211,0.893,0.284,1.248-0.025c0.431-0.376,0.668-0.582,1.043,0.09
		c0.204,0.366,0.726,0.251,1.083,0.005c0.321-0.221,0.496-0.567,0.395-0.938c-0.148-0.543-0.637-0.423-1.001-0.339
		C55.953,71.62,55.37,71.604,54.846,71.478z M58.787,73.943c-0.464-0.017-0.713,0.301-0.798,0.776
		c-0.093,0.514,0.27,0.584,0.647,0.605c0.477,0.027,0.731-0.229,0.789-0.685C59.478,74.219,59.323,73.951,58.787,73.943z
		 M56.811,74.37c-0.027-0.329-0.285-0.397-0.581-0.386c-0.444,0.017-0.815,0.177-0.765,0.695c0.036,0.373,0.339,0.52,0.701,0.486
		C56.612,75.122,56.73,74.785,56.811,74.37z M54.397,74.319c-0.099-0.431-0.449-0.357-0.747-0.333
		c-0.322,0.026-0.662,0.129-0.667,0.521c-0.005,0.449,0.386,0.423,0.687,0.429C54.07,74.943,54.341,74.755,54.397,74.319z
		 M51.777,74.257c-0.059-0.423-0.405-0.427-0.71-0.412c-0.298,0.015-0.71,0.011-0.694,0.447c0.015,0.386,0.368,0.48,0.7,0.475
		C51.405,74.762,51.7,74.664,51.777,74.257z"/>
	<path fill="#FFFFFF" d="M76.194,59.694c-0.677-0.596-0.411-1.138-0.348-1.608c0.59-4.355,0.443-8.691-0.389-12.993
		c-0.446-2.306-0.594-2.378-2.911-2.696c-4.745-0.652-9.499-1.228-14.304-0.898c-2.149,0.148-4.293,0.36-6.438,0.553
		c-0.359,0.032-0.826,0.168-0.957-0.23c-0.186-0.561,0.422-0.459,0.698-0.558c2.127-0.762,4.374-0.815,6.586-1.084
		c5.454-0.663,10.837,0.019,16.218,0.81c1.323,0.194,1.892,1.113,2.202,2.231C78.072,48.701,77.743,54.13,76.194,59.694z"/>
	<path fill="#FFFFFF" d="M70.993,61.625c-0.574,0.397-1.09,0.521-1.647,0.615c-4.926,0.834-9.859,0.831-14.796,0.145
		c-0.731-0.102-1.302-0.043-1.415,0.811c-0.131,0.986,0.718,0.843,1.215,0.877c4.07,0.281,8.147,0.372,12.226,0.259
		c1.31-0.036,2.609,0.176,3.921-0.085c0.012,0.128,0.023,0.256,0.035,0.383c-1.376,0.213-2.744,0.509-4.128,0.624
		c-4.824,0.399-9.65,0.449-14.45-0.292c-0.949-0.147-1.2,0.177-1.214,1.058c-0.012,0.705,0.312,1.924-0.573,1.932
		c-0.868,0.008-0.551-1.243-0.62-1.937c-0.191-1.925,0.029-2.158,1.838-2.325c0.388-0.036,0.736-0.076,0.775-0.552
		c0.045-0.547-0.018-1.072-0.635-1.274c-0.645-0.211-1.319-0.337-1.954-0.571c-0.306-0.113-0.754-0.3-0.604-0.748
		c0.139-0.417,0.546-0.203,0.842-0.159c2.964,0.438,5.914,1.027,8.893,1.289c3.539,0.311,7.102,0.424,10.651-0.039
		C69.85,61.569,70.365,61.625,70.993,61.625z"/>
	<path fill="#FFFFFF" d="M52.904,52.264c0.046,0.709,0.141,1.983,0.203,3.258c0.014,0.294,0.074,0.724-0.383,0.742
		c-0.372,0.014-0.333-0.384-0.409-0.634c-0.84-2.777-0.613-5.618-0.447-8.445c0.073-1.245,0.74-1.93,2.083-2.192
		c4.843-0.945,9.659-1.163,14.471,0.109c0.283,0.075,0.876-0.043,0.782,0.472c-0.068,0.368-0.551,0.187-0.849,0.157
		c-3.664-0.365-7.329-0.525-10.993-0.038c-1.103,0.146-2.198,0.363-3.292,0.575c-0.811,0.157-0.892,0.822-0.931,1.477
		C53.062,49.06,53.001,50.377,52.904,52.264z"/>
	<path fill="#FFFFFF" d="M55.357,58.29c3.011-0.304,5.618,0.025,8.195-0.348c1.894-0.274,3.794-0.503,5.69-0.764
		c1.155-0.159,1.721-0.794,1.79-2.003c0.121-2.111,0.492-4.204,0.424-6.332c-0.015-0.481-0.103-1.029,0.364-1.497
		c0.493,0.943,0.718,1.902,0.718,2.901c0,1.597-0.014,3.196-0.092,4.791c-0.12,2.472-0.448,2.966-2.76,3.503
		c-4.09,0.95-8.242,0.79-12.388,0.443c-0.391-0.033-0.773-0.194-1.155-0.31C56.002,58.63,55.874,58.545,55.357,58.29z"/>
	<path fill="#FFFFFF" d="M75.086,79.652c-2.802,1.472-5.848,1.65-8.855,1.758c-6.357,0.229-12.694-0.021-18.892-1.694
		c-0.193-0.052-0.395-0.075-0.58-0.147c-0.282-0.109-0.767-0.151-0.688-0.515c0.084-0.384,0.548-0.211,0.827-0.154
		c3.803,0.77,7.66,1.052,11.514,1.419c3.843,0.366,7.654,0.124,11.474-0.149C71.624,80.045,73.353,79.827,75.086,79.652z"/>
	<path fill="#FFFFFF" d="M47.005,49.491c0.132-1.852-0.084-3.748,0.565-5.561c0.183-0.51,0.116-1.264,0.916-1.121
		c0.784,0.14,0.597,0.903,0.502,1.392c-0.835,4.279-0.399,8.584-0.322,12.882c0.009,0.515-0.025,1.035,0.204,1.53
		c0.132,0.286,0.27,0.682-0.181,0.778c-0.314,0.067-0.433-0.268-0.486-0.564C47.648,55.736,46.794,52.685,47.005,49.491z"/>
	<path fill="#FFFFFF" d="M68.814,67.097c-0.837,0-1.673,0.007-2.51-0.003c-0.363-0.004-0.801-0.031-0.852-0.472
		c-0.059-0.512,0.427-0.521,0.759-0.526c1.792-0.027,3.585-0.03,5.378-0.017c0.301,0.002,0.71,0.034,0.676,0.478
		c-0.028,0.374-0.375,0.509-0.704,0.517c-0.916,0.021-1.832,0.007-2.748,0.007C68.814,67.086,68.814,67.092,68.814,67.097z"/>
	<path fill="#FFFFFF" d="M75.593,66.613c-0.291,0.598,0.159,1.538-0.873,1.619c-0.44,0.035-0.643-0.399-0.473-0.755
		c0.328-0.685-0.312-1.824,0.634-2.068C75.595,65.225,75.372,66.193,75.593,66.613z"/>
	<path fill="#FFFFFF" d="M72.195,64.581c-0.363-0.111-0.703-0.29-0.489-0.736c0.165-0.345,0.013-1.033,0.638-0.943
		c0.465,0.067,0.6,0.578,0.558,1.041C72.865,64.35,72.629,64.579,72.195,64.581z"/>
</g>
<g>
	<path fill="#FFFFFF" stroke="#FFFFFF" stroke-width="0.2" stroke-linecap="round" stroke-linejoin="round" d="M30.244,70.197
		l-0.064-0.358c-0.027-0.152,0.014-0.313,0.122-0.482c-0.723-0.004-1.398-0.208-2.027-0.614l0.389-0.706
		c0.806,0.419,1.577,0.563,2.315,0.432c0.338-0.061,0.781-0.252,1.328-0.574l1.125-0.654l0.486,0.649l-2.371,1.334
		c-0.396,0.224-0.577,0.438-0.54,0.643l0.033,0.188L30.244,70.197z"/>
	<path fill="#FFFFFF" stroke="#FFFFFF" stroke-width="0.2" stroke-linecap="round" stroke-linejoin="round" d="M32.748,72.302
		c-0.127,0.084-0.264,0.146-0.41,0.185c-0.346,0.094-0.683,0.076-1.01-0.056c-0.355-0.143-0.579-0.383-0.67-0.72l-0.385-1.415
		l0.78-0.212l0.314,1.153c0.045,0.166,0.149,0.285,0.313,0.357c0.154,0.071,0.316,0.084,0.485,0.038
		c0.074-0.02,0.137-0.048,0.189-0.083l1.719-1.163l0.532,0.637C34.211,71.32,33.591,71.747,32.748,72.302z M36.175,71.595
		c-0.006-0.02-0.31,0.037-0.912,0.17c-0.009-0.225-0.081-0.6-0.214-1.125s-0.254-0.9-0.361-1.123l0.87-0.273
		c0.111,0.215,0.241,0.598,0.39,1.146C36.111,70.987,36.186,71.389,36.175,71.595z"/>
	<path fill="#FFFFFF" stroke="#FFFFFF" stroke-width="0.2" stroke-linecap="round" stroke-linejoin="round" d="M32.634,77.295
		l-0.248-0.628c-0.608,0.081-1.244-0.018-1.907-0.294l0.303-0.783c0.4,0.215,0.824,0.293,1.272,0.234l-0.303-0.769
		c-0.093-0.237-0.049-0.496,0.133-0.778c0.242-0.372,0.694-0.689,1.359-0.951c0.394-0.155,0.787-0.235,1.18-0.241
		c0.532-0.006,0.863,0.155,0.993,0.483c0.179,0.455-0.042,1.023-0.666,1.705c-0.54,0.592-1.065,0.988-1.575,1.189l0.212,0.537
		L32.634,77.295z M32.868,75.684c0.069-0.018,0.14-0.041,0.212-0.069c0.403-0.159,0.78-0.448,1.132-0.867
		c0.319-0.38,0.455-0.63,0.408-0.748c-0.079-0.201-0.463-0.167-1.15,0.104c-0.249,0.098-0.46,0.228-0.636,0.389
		c-0.213,0.196-0.288,0.375-0.224,0.538L32.868,75.684z"/>
	<path fill="#FFFFFF" stroke="#FFFFFF" stroke-width="0.2" stroke-linecap="round" stroke-linejoin="round" d="M33.492,80.356
		c-0.01-0.019-0.293,0.106-0.849,0.374c-0.06-0.217-0.215-0.565-0.466-1.046c-0.251-0.481-0.454-0.817-0.608-1.01l0.784-0.465
		c0.157,0.184,0.372,0.526,0.643,1.026C33.29,79.779,33.456,80.153,33.492,80.356z M34.3,80.337l-0.157-0.289
		c-0.169-0.313-0.161-0.636,0.025-0.969c-0.407-0.073-0.684-0.246-0.833-0.519l-0.703-1.264l0.752-0.297l0.532,0.938
		c0.082,0.151,0.211,0.243,0.387,0.275c0.167,0.034,0.327,0.01,0.481-0.074c0.068-0.037,0.124-0.078,0.167-0.122l1.405-1.528
		l0.664,0.499c-0.297,0.36-0.98,1.109-2.05,2.249c-0.147,0.157-0.187,0.3-0.117,0.428l0.157,0.289L34.3,80.337z"/>
	<path fill="#FFFFFF" stroke="#FFFFFF" stroke-width="0.2" stroke-linecap="round" stroke-linejoin="round" d="M33.212,83.782
		c-0.079-0.158-0.164-0.303-0.255-0.434c-0.097-0.138-0.199-0.261-0.306-0.367l0.717-0.502c0.065,0.041,0.169,0.162,0.313,0.361
		c0.123,0.175,0.211,0.317,0.266,0.427L33.212,83.782z M35.425,83.279c-0.012-0.017-0.279,0.139-0.8,0.468
		c-0.084-0.208-0.279-0.537-0.583-0.986c-0.304-0.449-0.543-0.76-0.719-0.934l0.726-0.552c0.177,0.165,0.429,0.48,0.755,0.946
		C35.159,82.729,35.366,83.081,35.425,83.279z M36.272,83.179l-0.189-0.27c-0.204-0.291-0.232-0.613-0.085-0.966
		c-0.413-0.025-0.708-0.166-0.886-0.42L34.3,80.337l0.711-0.386l0.607,0.886c0.099,0.141,0.237,0.217,0.416,0.229
		c0.17,0.015,0.326-0.028,0.47-0.128c0.063-0.044,0.114-0.091,0.151-0.141l1.222-1.678l0.716,0.419
		c-0.254,0.391-0.847,1.214-1.781,2.468c-0.128,0.173-0.151,0.319-0.067,0.438l0.188,0.269L36.272,83.179z"/>
	<path fill="#FFFFFF" stroke="#FFFFFF" stroke-width="0.2" stroke-linecap="round" stroke-linejoin="round" d="M41.106,85.316
		c-0.07,0.269-0.195,0.491-0.376,0.666c-0.315,0.3-0.693,0.401-1.133,0.303c-0.378-0.084-0.727-0.292-1.048-0.625
		c-0.453-0.469-0.573-0.886-0.361-1.251c-0.224-0.019-0.482-0.092-0.775-0.221c-0.329-0.145-0.584-0.311-0.767-0.501l-0.372-0.508
		l0.662-0.464l0.292,0.411c0.346,0.358,0.858,0.524,1.537,0.499c0.604-0.023,1.153-0.174,1.648-0.455l0.259,0.646
		c-0.153,0.148-0.439,0.288-0.859,0.418s-0.662,0.228-0.728,0.292c-0.175,0.169-0.151,0.368,0.071,0.598
		c0.146,0.151,0.313,0.25,0.5,0.295c0.217,0.054,0.396,0.013,0.54-0.125c0.07-0.068,0.117-0.151,0.141-0.25l0.538-2.055l0.772,0.225
		L41.106,85.316z"/>
	<path fill="#FFFFFF" stroke="#FFFFFF" stroke-width="0.2" stroke-linecap="round" stroke-linejoin="round" d="M42.368,89.028
		l-0.7-0.583c-0.328-0.273-0.466-0.623-0.415-1.051c0.044-0.368,0.21-0.725,0.499-1.071c0.887-1.065,1.938-1.952,3.155-2.658
		l0.452,0.7c-0.456,0.242-0.992,0.631-1.609,1.169c-0.558,0.484-0.992,0.913-1.302,1.287c-0.199,0.239-0.308,0.441-0.326,0.607
		c-0.023,0.208,0.078,0.406,0.303,0.594l0.461,0.384L42.368,89.028z"/>
	<path fill="#FFFFFF" stroke="#FFFFFF" stroke-width="0.2" stroke-linecap="round" stroke-linejoin="round" d="M46.447,90.246
		c-0.024,0.045-0.051,0.091-0.083,0.137c-0.171,0.249-0.386,0.421-0.645,0.516c-0.291,0.11-0.556,0.083-0.795-0.082l-2.474-1.696
		l0.458-0.667l2.231,1.531c0.254,0.174,0.473,0.128,0.655-0.138c0.017-0.024,0.037-0.056,0.059-0.094l0.527-1.04
		c0.143-0.282,0.071-0.604-0.216-0.967c-0.066-0.081-0.225-0.213-0.474-0.395c-0.229-0.164-0.382-0.264-0.458-0.298
		c-0.058-0.025-0.105-0.051-0.142-0.076c-0.24-0.164-0.263-0.387-0.07-0.668c0.043-0.063,0.099-0.129,0.167-0.197l0.275-0.275
		c0.307-0.307,0.715-0.38,1.225-0.222c0.212,0.067,0.524,0.241,0.935,0.522c0.413,0.283,0.711,0.526,0.896,0.728l-0.445,0.648
		c-0.302-0.308-0.56-0.535-0.772-0.681c-0.735-0.504-1.216-0.591-1.442-0.262c0.513,0.352,0.842,0.61,0.988,0.775
		c0.472,0.532,0.57,1.059,0.294,1.582L46.447,90.246z"/>
	<path fill="#FFFFFF" stroke="#FFFFFF" stroke-width="0.2" stroke-linecap="round" stroke-linejoin="round" d="M54.013,95.16
		l-1.07-0.419c0.026,0.23,0.023,0.384-0.007,0.461c-0.164,0.41-0.563,0.612-1.195,0.608c-0.471-0.003-0.947-0.101-1.429-0.293
		c-1.295-0.518-1.748-1.265-1.357-2.241c0.14-0.35,0.57-0.849,1.292-1.498c0.613-0.552,1.138-0.962,1.573-1.228l0.465,0.655
		c-0.429,0.291-0.887,0.647-1.375,1.068c-0.601,0.522-0.953,0.911-1.055,1.167c-0.147,0.369-0.124,0.673,0.07,0.914
		c0.146,0.179,0.423,0.351,0.833,0.515c0.237,0.095,0.487,0.151,0.75,0.171c0.341,0.024,0.545-0.045,0.611-0.21
		c0.044-0.11,0.022-0.223-0.066-0.337c-0.075-0.1-0.17-0.173-0.286-0.22l0.298-0.747l2.164,0.865L54.013,95.16z"/>
	<path fill="#FFFFFF" stroke="#FFFFFF" stroke-width="0.2" stroke-linecap="round" stroke-linejoin="round" d="M60.127,94.281
		c0.034,0.166,0.033,0.342,0,0.529c-0.071,0.391-0.249,0.701-0.534,0.93c-0.302,0.238-0.645,0.322-1.03,0.252
		c-0.189-0.035-0.375-0.112-0.559-0.233c-0.201-0.133-0.333-0.282-0.394-0.445c-0.213,0.296-0.533,0.407-0.958,0.333
		c-0.537-0.094-0.884-0.324-1.041-0.689c-0.222,0.294-0.541,0.403-0.958,0.328l-0.641-0.124l0.216-0.771l0.523,0.096
		c0.128,0.023,0.257-0.017,0.385-0.121c0.129-0.104,0.205-0.222,0.229-0.354c0.003-0.018,0.004-0.042,0.004-0.072l-0.053-2.154
		c0.226-0.032,0.495-0.067,0.806-0.107l0.047,1.928c0.01,0.376,0.025,0.61,0.045,0.702c0.07,0.309,0.227,0.485,0.469,0.529
		c0.157,0.028,0.291-0.019,0.4-0.141c0.093-0.101,0.155-0.235,0.186-0.402c0.012-0.067,0.018-0.136,0.017-0.206l-0.074-1.964
		l0.813-0.137l0.074,1.964c0.012,0.335,0.038,0.575,0.077,0.721c0.081,0.305,0.231,0.477,0.453,0.517
		c0.16,0.029,0.299-0.022,0.417-0.155c0.102-0.114,0.168-0.256,0.199-0.425c0.015-0.084,0.017-0.161,0.005-0.229l-0.316-1.92
		l0.792-0.164L60.127,94.281z"/>
	<path fill="#FFFFFF" stroke="#FFFFFF" stroke-width="0.2" stroke-linecap="round" stroke-linejoin="round" d="M65.264,96.13
		l-0.835,0.077c-0.095,0-0.214-0.052-0.357-0.157c-0.131-0.094-0.225-0.188-0.282-0.282c-0.199,0.297-0.455,0.448-0.766,0.45
		l-1.706,0.013l-0.006-0.809l1.449-0.011c0.195-0.001,0.292-0.121,0.291-0.357c0-0.098-0.021-0.173-0.06-0.226l-1.437-1.998
		l0.61-0.529l2.011,2.682c0.207,0.277,0.383,0.415,0.531,0.414l0.446-0.067L65.264,96.13z"/>
	<path fill="#FFFFFF" stroke="#FFFFFF" stroke-width="0.2" stroke-linecap="round" stroke-linejoin="round" d="M68.077,95.742
		l-0.282,0.039c-0.352,0.049-0.652-0.073-0.898-0.365c-0.211,0.355-0.471,0.554-0.779,0.597l-0.854,0.118l-0.111-0.801l0.585-0.081
		c0.17-0.023,0.301-0.112,0.394-0.265c0.09-0.144,0.124-0.303,0.1-0.476c-0.011-0.076-0.03-0.142-0.059-0.198l-0.934-1.854
		l0.701-0.446c0.232,0.404,0.694,1.308,1.385,2.71c0.096,0.193,0.215,0.28,0.359,0.26l0.281-0.039L68.077,95.742z M66.263,91.516
		c-0.176,0-0.344,0.012-0.502,0.034c-0.167,0.023-0.323,0.058-0.465,0.104l-0.12-0.867c0.066-0.039,0.221-0.077,0.464-0.114
		c0.211-0.029,0.378-0.043,0.501-0.042L66.263,91.516z"/>
	<path fill="#FFFFFF" stroke="#FFFFFF" stroke-width="0.2" stroke-linecap="round" stroke-linejoin="round" d="M72.549,94.621
		l-0.645,0.168c-0.184,0.048-0.33,0.198-0.438,0.45c-0.132,0.304-0.144,0.659-0.038,1.066c-0.119,0.154-0.297,0.262-0.535,0.324
		c-0.43,0.112-0.862,0.042-1.295-0.212c-0.402-0.235-0.645-0.513-0.729-0.833l-0.563,0.147l-0.205-0.782l0.473-0.124
		c-0.184-0.702-0.169-1.433,0.045-2.193c0.201-0.708,0.454-1.102,0.761-1.183c0.43-0.112,0.79,0.384,1.08,1.49
		c0.364,1.39,0.181,2.181-0.55,2.372l-0.21,0.055c0.044,0.169,0.15,0.293,0.318,0.372c0.157,0.075,0.324,0.09,0.499,0.044
		c-0.024-0.407,0.053-0.767,0.231-1.081c0.193-0.348,0.478-0.571,0.854-0.669l0.629-0.155L72.549,94.621z M69.527,92.656
		c-0.094,0.025-0.158,0.262-0.19,0.711c-0.035,0.475-0.007,0.887,0.085,1.236l0.094-0.025c0.101-0.026,0.179-0.125,0.235-0.295
		c0.042-0.131,0.062-0.263,0.057-0.396c-0.008-0.298-0.054-0.61-0.14-0.937C69.614,92.743,69.567,92.646,69.527,92.656z"/>
	<path fill="#FFFFFF" stroke="#FFFFFF" stroke-width="0.2" stroke-linecap="round" stroke-linejoin="round" d="M75.906,90.918
		c0.227,0.161,0.39,0.356,0.489,0.588c0.169,0.401,0.129,0.791-0.118,1.167c-0.212,0.323-0.531,0.576-0.956,0.758
		c-0.599,0.257-1.032,0.222-1.298-0.105c-0.097,0.203-0.257,0.418-0.481,0.647c-0.251,0.256-0.498,0.436-0.74,0.54l-0.253,0.108
		l-0.319-0.743l0.253-0.108c0.457-0.196,0.794-0.617,1.011-1.261c0.193-0.573,0.246-1.14,0.159-1.703l0.695-0.013
		c0.084,0.196,0.113,0.513,0.087,0.952c-0.026,0.438-0.021,0.7,0.015,0.784c0.096,0.224,0.291,0.272,0.584,0.146
		c0.193-0.083,0.344-0.205,0.453-0.364c0.128-0.184,0.152-0.367,0.074-0.549c-0.039-0.089-0.1-0.163-0.183-0.221l-1.731-1.23
		l0.484-0.643L75.906,90.918z"/>
	<path fill="#FFFFFF" stroke="#FFFFFF" stroke-width="0.2" stroke-linecap="round" stroke-linejoin="round" d="M81.861,88.069
		c0.188,0.27,0.28,0.553,0.276,0.848c-0.002,0.33-0.133,0.585-0.393,0.766l-0.832,0.579c-0.547,0.381-1.024,0.278-1.432-0.308
		c-0.137-0.197-0.269-0.484-0.395-0.862c-0.123-0.358-0.198-0.669-0.226-0.931l0.749-0.153c0.125,0.625,0.272,1.06,0.443,1.305
		c0.176,0.253,0.345,0.322,0.508,0.209l0.565-0.394c0.1-0.069,0.151-0.17,0.153-0.301c0.003-0.121-0.032-0.232-0.103-0.334
		c-0.115-0.166-0.398-0.32-0.849-0.465c-0.559-0.181-1.134-0.229-1.726-0.146l-0.009-0.768c0.467-0.127,1.054-0.095,1.761,0.095
		C81.098,87.408,81.601,87.695,81.861,88.069z"/>
	<path fill="#FFFFFF" stroke="#FFFFFF" stroke-width="0.2" stroke-linecap="round" stroke-linejoin="round" d="M86.844,85.341
		l-1.058,1.004c-0.071,0.063-0.195,0.1-0.373,0.114c-0.161,0.014-0.293,0.004-0.398-0.03c0.043,0.356-0.052,0.636-0.287,0.841
		l-1.284,1.123l-0.532-0.609l1.09-0.954c0.147-0.128,0.143-0.282-0.013-0.46c-0.064-0.074-0.128-0.118-0.192-0.133l-2.393-0.576
		l0.117-0.799l3.274,0.72c0.337,0.076,0.562,0.065,0.673-0.033l0.72-0.688L86.844,85.341z"/>
	<path fill="#FFFFFF" stroke="#FFFFFF" stroke-width="0.2" stroke-linecap="round" stroke-linejoin="round" d="M89.609,82.197
		l-0.367,0.417c-0.131,0.149-0.333,0.22-0.606,0.212c0.039,0.275-0.026,0.508-0.194,0.699l-1.597,1.816l-0.991-0.098l1.787-2.032
		c0.203-0.231,0.184-0.454-0.059-0.667c-0.022-0.02-0.051-0.043-0.087-0.069l-0.968-0.648c-0.263-0.176-0.592-0.143-0.986,0.099
		c-0.088,0.056-0.238,0.197-0.448,0.422c-0.19,0.208-0.308,0.348-0.352,0.42c-0.032,0.054-0.063,0.098-0.092,0.132
		c-0.192,0.218-0.416,0.215-0.671-0.01c-0.058-0.051-0.116-0.114-0.176-0.19l-0.24-0.306c-0.268-0.342-0.292-0.755-0.073-1.242
		c0.092-0.204,0.302-0.492,0.631-0.866c0.331-0.376,0.607-0.644,0.83-0.802l0.59,0.519c-0.342,0.264-0.598,0.492-0.768,0.686
		c-0.589,0.669-0.733,1.136-0.433,1.4c0.411-0.467,0.707-0.763,0.888-0.888c0.585-0.405,1.12-0.439,1.605-0.103l1.107,0.766
		c0.367,0.256,0.634,0.288,0.803,0.097l0.261-0.297L89.609,82.197z"/>
	<path fill="#FFFFFF" stroke="#FFFFFF" stroke-width="0.2" stroke-linecap="round" stroke-linejoin="round" d="M86.555,76.334
		c-0.107,0.14-0.2,0.28-0.279,0.419c-0.083,0.146-0.15,0.291-0.2,0.433l-0.761-0.433c0.01-0.077,0.074-0.222,0.192-0.438
		c0.105-0.186,0.196-0.327,0.271-0.423L86.555,76.334z M87.236,75.837c-0.01,0.018,0.245,0.192,0.766,0.522
		c-0.152,0.166-0.366,0.482-0.641,0.949c-0.276,0.467-0.454,0.817-0.536,1.05l-0.81-0.419c0.073-0.231,0.25-0.594,0.532-1.088
		C86.854,76.313,87.083,75.975,87.236,75.837z M93.643,74.994l-0.583,1.449c-0.141,0.248-0.394,0.412-0.761,0.493
		c0.121,0.351,0.08,0.705-0.122,1.06c-0.095,0.167-0.229,0.317-0.404,0.45c-0.192,0.146-0.375,0.221-0.547,0.226
		c0.087,0.128,0.128,0.296,0.123,0.504c-0.005,0.195-0.049,0.364-0.13,0.508c-0.27,0.474-0.601,0.725-0.996,0.753
		c0.204,0.307,0.201,0.645-0.008,1.013l-0.606,0.747l-0.607-0.534l0.489-0.574c0.064-0.113,0.069-0.248,0.015-0.403
		c-0.055-0.156-0.14-0.266-0.256-0.332c-0.015-0.009-0.037-0.018-0.066-0.027l-2.05-0.665c0.045-0.223,0.101-0.489,0.166-0.796
		l1.834,0.594c0.359,0.115,0.584,0.179,0.676,0.19c0.312,0.037,0.528-0.052,0.651-0.269c0.079-0.139,0.08-0.28,0.002-0.423
		c-0.063-0.121-0.168-0.223-0.314-0.306c-0.059-0.034-0.121-0.061-0.188-0.082l-1.877-0.581l0.141-0.813l1.877,0.582
		c0.317,0.098,0.551,0.152,0.701,0.163c0.312,0.024,0.524-0.062,0.635-0.258c0.081-0.142,0.079-0.29-0.007-0.444
		c-0.073-0.134-0.184-0.243-0.332-0.327c-0.074-0.042-0.146-0.068-0.215-0.079l-1.914-0.339l0.108-0.802l2.528,0.389
		c0.454,0.071,0.733,0.015,0.836-0.168l0.337-0.669L93.643,74.994z"/>
	<path fill="#FFFFFF" stroke="#FFFFFF" stroke-width="0.2" stroke-linecap="round" stroke-linejoin="round" d="M89.803,72.793
		c-0.083,0.156-0.153,0.309-0.209,0.458c-0.059,0.158-0.102,0.311-0.128,0.459l-0.82-0.306c-0.003-0.077,0.037-0.231,0.12-0.463
		c0.075-0.2,0.142-0.354,0.2-0.461L89.803,72.793z M92.5,72.958c0.152,0.006,0.3,0.036,0.441,0.088
		c0.336,0.125,0.599,0.337,0.788,0.635c0.205,0.323,0.247,0.648,0.125,0.976l-0.64,1.463l-0.521-0.663l0.309-0.829
		c0.06-0.161,0.044-0.318-0.047-0.473c-0.084-0.148-0.208-0.252-0.372-0.313c-0.072-0.027-0.14-0.041-0.202-0.042l-2.075-0.058
		l-0.061-0.828C90.74,72.903,91.491,72.918,92.5,72.958z"/>
	<path fill="#FFFFFF" stroke="#FFFFFF" stroke-width="0.2" stroke-linecap="round" stroke-linejoin="round" d="M94.856,70.95
		l-0.214,0.752c-0.128-0.049-0.283-0.099-0.465-0.151c-0.712-0.203-1.558-0.377-2.535-0.523c-1.028-0.154-1.887-0.226-2.577-0.216
		l0.076-0.852c0.591,0.023,1.351,0.1,2.282,0.229c1.128,0.158,2.057,0.341,2.787,0.548C94.449,70.806,94.664,70.877,94.856,70.95z"
		/>
	<path fill="#FFFFFF" stroke="#FFFFFF" stroke-width="0.2" stroke-linecap="round" stroke-linejoin="round" d="M93.695,67.232
		c0.242-0.119,0.507-0.151,0.795-0.099c0.306,0.056,0.542,0.185,0.71,0.388c0.181,0.214,0.244,0.471,0.188,0.771l-0.299,1.635
		l-0.795-0.146l0.26-1.425c0.036-0.192-0.064-0.31-0.298-0.353c-0.097-0.018-0.175-0.014-0.234,0.013l-2.23,1.04l-0.405-0.697
		L93.695,67.232z"/>
</g>
<g>
	<path fill="#FFFFFF" stroke="#FFFFFF" stroke-width="0.2" stroke-linecap="round" stroke-linejoin="round" d="M28.639,47.724
		c-0.094,0.217-0.17,0.429-0.228,0.635c-0.062,0.218-0.102,0.428-0.121,0.628l-1.13-0.317c-0.013-0.102,0.024-0.313,0.109-0.631
		c0.077-0.275,0.149-0.488,0.216-0.638L28.639,47.724z M35.566,46.439l-1.21,3.069c-0.084,0.302-0.185,0.499-0.301,0.59
		c0.05,0.146,0.021,0.412-0.088,0.798l-0.995,3.545c-0.167,0.596-0.554,1.01-1.159,1.24c-0.549,0.208-1.132,0.227-1.748,0.054
		c-0.432-0.121-0.884-0.378-1.355-0.77c-0.411-0.342-0.73-0.689-0.958-1.042l0.829-0.64c0.174,0.276,0.451,0.555,0.829,0.839
		c0.378,0.284,0.722,0.469,1.032,0.556c0.355,0.1,0.668,0.097,0.937-0.009c0.301-0.118,0.5-0.349,0.597-0.693l0.962-3.43
		c-0.339,0.062-0.824,0.004-1.455-0.173c-0.623-0.175-1.159-0.426-1.607-0.754c-0.568-0.416-0.791-0.841-0.668-1.277
		c0.147-0.524,0.728-0.932,1.742-1.225c0.884-0.255,1.531-0.325,1.94-0.21c0.501,0.141,0.794,0.369,0.878,0.686l0.931-1.494
		L35.566,46.439z M32.582,47.952c-0.188-0.053-0.595-0.01-1.22,0.128c-0.651,0.143-0.998,0.285-1.037,0.427
		c-0.078,0.279,0.365,0.554,1.331,0.825c0.705,0.198,1.252,0.176,1.643-0.065c0.002-0.272-0.062-0.543-0.19-0.814
		S32.804,48.015,32.582,47.952z"/>
	<path fill="#FFFFFF" stroke="#FFFFFF" stroke-width="0.2" stroke-linecap="round" stroke-linejoin="round" d="M34.558,43.384
		c0.202,0.037,0.392,0.103,0.57,0.199c0.423,0.228,0.732,0.558,0.929,0.988c0.213,0.467,0.208,0.906-0.014,1.319l-1.357,2.446
		l-0.53-1.231l0.761-1.41c0.109-0.203,0.118-0.415,0.025-0.636c-0.084-0.212-0.229-0.374-0.436-0.485
		c-0.091-0.049-0.178-0.08-0.261-0.094L31.5,44.021l0.072-1.111C32.23,42.986,33.226,43.144,34.558,43.384z M37.729,44.797
		c-0.013,0.024,0.334,0.25,1.042,0.677c-0.199,0.227-0.476,0.657-0.832,1.291c-0.355,0.634-0.584,1.108-0.687,1.423l-1.098-0.538
		c0.091-0.312,0.318-0.803,0.68-1.474C37.23,45.446,37.528,44.986,37.729,44.797z"/>
	<path fill="#FFFFFF" stroke="#FFFFFF" stroke-width="0.2" stroke-linecap="round" stroke-linejoin="round" d="M39.079,41.236
		l-0.18,0.228c-0.118,0.169-0.532,0.449-0.795,0.507c0.682,0.689,1.128,1.523,1.34,2.504l-1.037,0.3
		c-0.367-1.161-0.961-2.029-1.785-2.604c-0.378-0.264-0.979-0.502-1.803-0.716l-1.687-0.447l0.155-1.076l3.512,0.983
		c0.588,0.163,0.962,0.131,1.121-0.097l0.146-0.21L39.079,41.236z"/>
	<path fill="#FFFFFF" stroke="#FFFFFF" stroke-width="0.2" stroke-linecap="round" stroke-linejoin="round" d="M35.911,33.423
		c-0.188,0.144-0.357,0.292-0.509,0.443c-0.16,0.16-0.297,0.323-0.412,0.489l-0.831-0.829c0.039-0.096,0.174-0.262,0.404-0.498
		c0.202-0.202,0.369-0.353,0.5-0.451L35.911,33.423z M36.968,33.021c-0.02,0.02,0.249,0.335,0.806,0.947
		c-0.255,0.161-0.644,0.494-1.165,1c-0.522,0.506-0.876,0.896-1.064,1.168l-0.898-0.829c0.176-0.272,0.534-0.679,1.072-1.219
		C36.304,33.501,36.721,33.145,36.968,33.021z M41.901,34.533c0.208,0.09,0.402,0.225,0.583,0.404
		c0.377,0.376,0.583,0.809,0.618,1.297c0.032,0.514-0.137,0.957-0.507,1.328c-0.182,0.183-0.41,0.329-0.683,0.438
		c-0.301,0.121-0.564,0.152-0.791,0.095c0.164,0.46,0.042,0.897-0.365,1.311c-0.513,0.52-1.031,0.727-1.553,0.621
		c0.155,0.469,0.166,0.936-0.235,1.338l-1.046,0.595l-0.313-0.792l0.459-0.559c0.27-0.676,0.138-0.29,0.121-0.512
		c-0.017-0.221-0.088-0.395-0.216-0.522c-0.017-0.017-0.042-0.037-0.076-0.059l-2.416-1.584c0.138-0.273,0.303-0.597,0.497-0.971
		l2.162,1.417c0.423,0.276,0.692,0.438,0.808,0.486c0.395,0.158,0.708,0.12,0.941-0.113c0.151-0.152,0.202-0.335,0.15-0.548
		c-0.04-0.18-0.14-0.35-0.3-0.51c-0.065-0.065-0.137-0.122-0.215-0.173l-2.225-1.419l0.469-1.001l2.222,1.416
		c0.378,0.242,0.663,0.396,0.854,0.464c0.397,0.144,0.703,0.108,0.916-0.106c0.154-0.155,0.203-0.348,0.146-0.578
		c-0.048-0.2-0.154-0.381-0.317-0.543c-0.082-0.082-0.165-0.142-0.249-0.181l-2.359-1.115l0.423-1L41.901,34.533z"/>
	<path fill="#FFFFFF" stroke="#FFFFFF" stroke-width="0.2" stroke-linecap="round" stroke-linejoin="round" d="M53.479,32.178
		l-1.305,0.49c0.247,0.188,0.394,0.333,0.44,0.434c0.245,0.539,0.072,1.112-0.519,1.722c-0.439,0.453-0.975,0.824-1.608,1.112
		c-1.702,0.775-2.845,0.521-3.43-0.762c-0.209-0.459-0.293-1.339-0.253-2.641c0.033-1.106,0.122-1.993,0.267-2.661l1.066,0.156
		c-0.115,0.686-0.195,1.459-0.239,2.321c-0.051,1.067,0,1.767,0.153,2.104c0.221,0.484,0.537,0.744,0.95,0.778
		c0.308,0.026,0.732-0.084,1.27-0.33c0.31-0.141,0.597-0.331,0.86-0.568c0.34-0.307,0.46-0.57,0.362-0.786
		c-0.066-0.145-0.195-0.227-0.388-0.249c-0.166-0.021-0.325,0.004-0.477,0.073l-0.446-0.981l3.372-1.336L53.479,32.178z"/>
	<path fill="#FFFFFF" stroke="#FFFFFF" stroke-width="0.2" stroke-linecap="round" stroke-linejoin="round" d="M54.147,24.529
		c-0.026,0.008,0.058,0.414,0.253,1.217c-0.301,0.019-0.802,0.125-1.502,0.319c-0.701,0.194-1.199,0.366-1.494,0.515l-0.391-1.158
		c0.286-0.155,0.794-0.34,1.525-0.556C53.335,24.632,53.871,24.52,54.147,24.529z M56.699,31.267l-0.422,0.125
		c-0.458,0.135-0.878,0.033-1.264-0.304c-0.209,0.513-0.514,0.828-0.914,0.946l-1.592,0.371l-0.594-0.701l1.531-0.607
		c0.221-0.065,0.377-0.208,0.469-0.431c0.092-0.209,0.104-0.426,0.038-0.651c-0.029-0.099-0.068-0.183-0.118-0.251l-1.607-2.271
		l0.839-0.731c0.389,0.49,1.181,1.595,2.377,3.316c0.165,0.237,0.763,0.204,0.95,0.149l0,0L56.699,31.267z"/>
	<path fill="#FFFFFF" stroke="#FFFFFF" stroke-width="0.2" stroke-linecap="round" stroke-linejoin="round" d="M63.606,30.642
		l-3.927,0.209l-0.104-0.882c-0.057-0.485,0.019-1.014,0.228-1.586c0.199-0.555,0.47-1.019,0.814-1.392
		c-0.15-0.118-0.441-0.2-0.875-0.245c-0.36-0.038-0.671-0.041-0.931-0.01c-0.414,0.048-0.772,0.196-1.075,0.443
		c-0.354,0.289-0.507,0.638-0.459,1.048c0.06,0.508,0.318,0.918,0.774,1.232c0.409,0.279,0.813,0.396,1.211,0.349l0.126,1.077
		l-3.254,0.538l-0.165-1.072l1.139-0.29c-0.551-0.403-0.869-0.963-0.953-1.681c-0.087-0.742,0.14-1.366,0.68-1.874
		c0.479-0.452,1.091-0.722,1.836-0.81c0.529-0.062,1.14-0.02,1.833,0.127c0.709,0.148,1.28,0.361,1.712,0.638l-0.301,0.959
		c-0.44,0.164-0.755,0.46-0.945,0.891c-0.171,0.384-0.228,0.822-0.169,1.315l2.6-0.08L63.606,30.642z"/>
	<path fill="#FFFFFF" stroke="#FFFFFF" stroke-width="0.2" stroke-linecap="round" stroke-linejoin="round" d="M67.063,30.758
		l-1.077-0.016c-0.476-0.02-0.842-0.252-1.098-0.696c-0.363,0.418-0.753,0.619-1.17,0.601l-1.155-0.048l-0.438-1.011l1.276-0.039
		c0.23,0.01,0.424-0.075,0.583-0.256c0.154-0.168,0.236-0.37,0.246-0.604c0.004-0.103-0.005-0.195-0.03-0.275l-0.789-2.668
		l1.031-0.422c0.21,0.589,0.603,1.892,1.179,3.907c0.08,0.278,0.597,0.437,0.791,0.445l0,0L67.063,30.758z M64.985,24.75
		c-0.233-0.042-0.457-0.066-0.67-0.076c-0.227-0.009-0.439,0-0.639,0.027l0.049-1.172c0.097-0.036,0.31-0.049,0.64-0.039
		c0.286,0.012,0.509,0.034,0.671,0.064L64.985,24.75z"/>
	<path fill="#FFFFFF" stroke="#FFFFFF" stroke-width="0.2" stroke-linecap="round" stroke-linejoin="round" d="M73.435,28.894
		c0.017,0.422-0.008,0.796-0.077,1.122c-0.094,0.447-0.268,0.792-0.521,1.035c-0.569,0.546-1.543,0.675-2.923,0.386
		c-0.859-0.18-1.555-0.46-2.088-0.839c-0.111,0.086-0.314,0.135-0.609,0.146c-0.246,0.009-0.463-0.006-0.654-0.046l-0.857-0.18
		l0.325-0.86l0,0c0.241,0.05,1.168-0.003,1.274-0.12c0.079-0.085,0.146-0.263,0.203-0.536c0.147-0.7,0.102-1.705-0.135-3.017
		c0.303-0.034,0.649-0.115,1.038-0.245c0.151,0.519,0.236,1.129,0.255,1.831c0.02,0.678-0.025,1.293-0.137,1.846
		c0.286-0.667,0.762-1.321,1.428-1.965c0.788-0.76,1.485-1.077,2.092-0.95c0.447,0.094,0.797,0.409,1.05,0.944
		C73.301,27.88,73.413,28.362,73.435,28.894z M72.266,29.885c0.087-0.416,0.09-0.876,0.009-1.38
		c-0.093-0.583-0.283-0.905-0.57-0.965c-0.334-0.07-0.753,0.215-1.257,0.856c-0.432,0.551-0.764,1.13-0.998,1.739
		c0.377,0.12,0.674,0.202,0.892,0.248C71.504,30.626,72.146,30.46,72.266,29.885z"/>
	<path fill="#FFFFFF" stroke="#FFFFFF" stroke-width="0.2" stroke-linecap="round" stroke-linejoin="round" d="M80.269,33.814
		c-0.206,0.39-0.486,0.673-0.84,0.849c-0.394,0.201-0.778,0.201-1.154,0.002l-1.201-0.636c-0.79-0.418-0.96-1.05-0.513-1.896
		c0.151-0.284,0.413-0.617,0.786-1c0.352-0.367,0.675-0.647,0.971-0.841l0.642,0.799c-0.668,0.531-1.096,0.975-1.284,1.329
		c-0.193,0.365-0.172,0.609,0.063,0.734l0.816,0.432c0.144,0.076,0.295,0.075,0.453-0.002c0.146-0.071,0.257-0.181,0.335-0.328
		c0.126-0.239,0.137-0.671,0.033-1.297c-0.127-0.778-0.422-1.493-0.885-2.147l0.909-0.482c0.438,0.479,0.761,1.199,0.967,2.157
		C80.588,32.498,80.555,33.273,80.269,33.814z"/>
	<path fill="#FFFFFF" stroke="#FFFFFF" stroke-width="0.2" stroke-linecap="round" stroke-linejoin="round" d="M82.386,37.457
		l-0.993-0.71c-0.465-0.333-0.685-0.788-0.657-1.364c0.023-0.496,0.21-0.99,0.562-1.481c1.082-1.511,2.401-2.799,3.958-3.862
		l0.673,0.892c-0.585,0.368-1.265,0.941-2.038,1.721c-0.698,0.702-1.236,1.318-1.615,1.848c-0.243,0.339-0.368,0.62-0.377,0.844
		c-0.01,0.281,0.145,0.535,0.464,0.764l0.714,0.622L82.386,37.457z"/>
	<path fill="#FFFFFF" stroke="#FFFFFF" stroke-width="0.2" stroke-linecap="round" stroke-linejoin="round" d="M86.816,41.56
		l-0.844-0.673c-0.191-0.185-0.272-0.46-0.244-0.826c-0.371,0.034-0.678-0.068-0.923-0.306l-2.885-2.631l0.541-0.946l2.817,2.526
		c0.296,0.288,0.595,0.276,0.897-0.035c0.028-0.029,0.061-0.066,0.098-0.113l0.933-1.253c0.253-0.341,0.231-0.783-0.067-1.327
		c-0.069-0.123-0.248-0.332-0.537-0.628c-0.265-0.269-0.445-0.435-0.539-0.498c-0.071-0.047-0.128-0.091-0.17-0.132
		c-0.28-0.271-0.26-0.571,0.058-0.898c0.072-0.074,0.161-0.148,0.267-0.223l0.425-0.301c0.476-0.335,1.031-0.341,1.668-0.016
		c0.266,0.136,0.638,0.437,1.117,0.901c0.481,0.468,0.821,0.856,1.02,1.165l-0.734,0.756c-0.33-0.475-0.619-0.833-0.867-1.074
		c-0.858-0.833-1.474-1.057-1.847-0.672c0.598,0.581,0.975,0.997,1.13,1.247c0.504,0.81,0.515,1.528,0.032,2.156l-1.099,1.432
		c-0.367,0.474-0.427,0.831-0.182,1.068l0.38,0.369L86.816,41.56z M90.979,34.822c-0.034,0.023-0.075,0.06-0.125,0.111
		c-0.036,0.037-0.077,0.083-0.124,0.137c-0.347-0.469-0.737-0.915-1.17-1.335c-0.53-0.514-1.01-0.872-1.44-1.074l0.176-0.31
		c0.499,0.301,1.044,0.74,1.637,1.315C90.327,34.048,90.675,34.434,90.979,34.822z"/>
	<path fill="#FFFFFF" stroke="#FFFFFF" stroke-width="0.2" stroke-linecap="round" stroke-linejoin="round" d="M90.963,48.174
		l-0.379-0.529c-0.208-0.319-0.264-0.803-0.135-1.29c-0.493-0.073-0.888-0.339-1.187-0.799c-0.141-0.217-0.236-0.47-0.287-0.759
		c-0.056-0.319-0.033-0.583,0.069-0.791c-0.207,0.025-0.432-0.03-0.676-0.165c-0.229-0.126-0.404-0.282-0.525-0.469
		c-0.398-0.613-0.492-1.163-0.283-1.649c-0.491,0.053-0.891-0.158-1.2-0.634l-0.272-0.419l0.361-0.865l0,0
		c0.095,0.147,1.04,0.879,1.259,0.91s0.403-0.003,0.553-0.1c0.02-0.013,0.044-0.034,0.073-0.062l2.055-2.031
		c0.238,0.191,0.52,0.421,0.846,0.688l-1.839,1.817c-0.358,0.356-0.573,0.585-0.643,0.688c-0.236,0.348-0.264,0.661-0.082,0.941
		c0.117,0.18,0.285,0.268,0.503,0.263c0.183-0.001,0.369-0.063,0.558-0.185c0.076-0.05,0.147-0.107,0.212-0.173l1.85-1.877
		l0.88,0.668l-1.849,1.876c-0.313,0.317-0.521,0.562-0.626,0.734c-0.221,0.357-0.249,0.662-0.084,0.916
		c0.119,0.184,0.296,0.272,0.533,0.266c0.204-0.004,0.402-0.069,0.594-0.194c0.096-0.063,0.171-0.131,0.226-0.207l1.584-2.069
		l0.887,0.623l-2.022,2.77c-0.364,0.497-0.469,0.863-0.315,1.1l0.161,0.485L90.963,48.174z M94.879,41.005
		c-0.015-0.023-0.38,0.173-1.094,0.59c-0.104-0.284-0.348-0.733-0.734-1.349c-0.386-0.616-0.693-1.044-0.92-1.285l0.999-0.705
		c0.229,0.229,0.552,0.664,0.967,1.303C94.549,40.256,94.81,40.738,94.879,41.005z M94.707,39.888
		c-0.101-0.214-0.21-0.411-0.327-0.59c-0.124-0.19-0.254-0.358-0.392-0.505l0.984-0.64c0.085,0.059,0.219,0.225,0.402,0.499
		c0.156,0.24,0.268,0.434,0.337,0.584L94.707,39.888z"/>
	<path fill="#FFFFFF" stroke="#FFFFFF" stroke-width="0.2" stroke-linecap="round" stroke-linejoin="round" d="M94.065,49.493
		c-0.155,0.134-0.326,0.24-0.513,0.318c-0.443,0.186-0.894,0.22-1.353,0.102c-0.497-0.127-0.836-0.407-1.017-0.839l-0.599-1.428
		l1-0.419l0.458,1.093c0.089,0.212,0.249,0.352,0.479,0.419c0.218,0.068,0.435,0.057,0.651-0.034
		c0.095-0.04,0.174-0.088,0.237-0.144l2.081-1.847l0.819,0.753C95.837,47.932,95.089,48.607,94.065,49.493z M96.855,47.18
		c-0.062-0.229-0.134-0.441-0.216-0.639c-0.088-0.209-0.187-0.398-0.296-0.567l1.082-0.454c0.073,0.073,0.176,0.26,0.307,0.563
		c0.11,0.264,0.186,0.475,0.227,0.635L96.855,47.18z"/>
	<path fill="#FFFFFF" stroke="#FFFFFF" stroke-width="0.2" stroke-linecap="round" stroke-linejoin="round" d="M92.423,53.136
		l-0.315-1c0.179-0.04,0.39-0.098,0.632-0.174c0.947-0.298,2.021-0.727,3.224-1.285c1.265-0.586,2.279-1.139,3.043-1.659
		l0.543,1.009c-0.679,0.41-1.586,0.885-2.723,1.427c-1.379,0.656-2.554,1.136-3.524,1.442
		C92.985,52.997,92.691,53.077,92.423,53.136z"/>
	<path fill="#FFFFFF" stroke="#FFFFFF" stroke-width="0.2" stroke-linecap="round" stroke-linejoin="round" d="M95.631,56.429
		c-0.244,0.266-0.559,0.437-0.944,0.512c-0.409,0.08-0.768,0.035-1.077-0.136c-0.33-0.178-0.534-0.468-0.612-0.87l-0.426-2.187
		l1.064-0.208l0.372,1.906c0.05,0.257,0.232,0.355,0.545,0.294c0.129-0.025,0.224-0.068,0.286-0.13l2.275-2.39l0.846,0.672
		L95.631,56.429z"/>
</g>
</svg>
